# Blender v2.93.4 OBJ File: 'Helmet.blend'
# www.blender.org
mtllib Helmet.mtl
v -0.050225 1.735550 -0.101249
v 0.058382 1.642795 -0.104669
v -0.050468 1.763979 0.062971
v 0.050400 1.763979 0.062971
v -0.058754 1.677062 0.092664
v -0.058361 1.642795 -0.104669
v 0.050151 1.735550 -0.101249
v 0.016012 1.787084 -0.047064
v 0.057321 1.691884 -0.109479
v 0.015630 1.794731 -0.002822
v 0.057703 1.725472 0.083884
v -0.015255 1.794731 -0.002822
v -0.057680 1.725472 0.083884
v -0.015651 1.787084 -0.047064
v -0.057300 1.691884 -0.109479
v -0.039929 1.759288 -0.086037
v -0.040035 1.781352 0.041629
v 0.040023 1.781352 0.041629
v 0.039904 1.759288 -0.086037
v -0.029736 1.772510 -0.070465
v -0.029729 1.788713 0.023291
v 0.029902 1.788713 0.023291
v 0.029903 1.772510 -0.070465
v -0.077176 1.747565 -0.032003
v -0.077647 1.752021 -0.006224
v 0.092568 1.657700 -0.019367
v -0.012835 1.767360 0.082531
v 0.012749 1.767360 0.082531
v 0.078077 1.752021 -0.006224
v 0.077622 1.747565 -0.032003
v -0.092016 1.662144 0.006348
v -0.092039 1.657700 -0.019367
v -0.013035 1.732370 -0.118771
v 0.012942 1.732370 -0.118770
v 0.012831 1.786792 -0.048756
v -0.012469 1.786792 -0.048756
v 0.012592 1.688130 -0.128927
v -0.012571 1.688130 -0.128927
v 0.019080 1.793157 -0.011928
v 0.018769 1.788680 -0.037832
v 0.090689 1.710891 -0.000481
v 0.090712 1.706444 -0.026213
v -0.012093 1.795032 -0.001078
v 0.012467 1.795032 -0.001078
v -0.012391 1.729630 0.107946
v 0.012414 1.729630 0.107946
v -0.018369 1.788680 -0.037832
v -0.018697 1.793157 -0.011928
v -0.090183 1.706444 -0.026213
v -0.090160 1.710891 -0.000481
v -0.060161 1.772589 -0.009077
v -0.059376 1.768123 -0.034916
v 0.012941 1.783783 0.055698
v -0.013019 1.783783 0.055698
v 0.059765 1.768123 -0.034915
v 0.060532 1.772589 -0.009077
v -0.013228 1.756916 -0.099761
v 0.013137 1.756916 -0.099760
v 0.013000 1.770985 -0.079288
v -0.012859 1.770985 -0.079288
v -0.043048 1.782874 -0.010494
v -0.042486 1.778400 -0.036381
v 0.012814 1.790277 0.032339
v -0.012666 1.790277 0.032339
v 0.042874 1.778400 -0.036381
v 0.043423 1.782874 -0.010494
v -0.011975 1.793157 -0.011928
v 0.012358 1.793157 -0.011928
v -0.011757 1.788680 -0.037832
v 0.012157 1.788680 -0.037832
v -0.062127 1.774947 -0.009482
v -0.061341 1.770474 -0.035320
v -0.079811 1.749139 -0.032272
v -0.080247 1.753612 -0.006496
v 0.012948 1.786624 0.056933
v -0.013033 1.786624 0.056933
v -0.012844 1.769598 0.084673
v 0.012756 1.769598 0.084673
v 0.061728 1.770474 -0.035320
v 0.062496 1.774947 -0.009482
v 0.080675 1.753612 -0.006496
v 0.080255 1.749139 -0.032272
v 0.012592 1.688463 -0.132007
v -0.012571 1.688463 -0.132007
v -0.013044 1.733860 -0.121565
v 0.012949 1.733860 -0.121564
v 0.013004 1.773642 -0.080880
v -0.012867 1.773642 -0.080880
v -0.012469 1.789728 -0.049743
v 0.012831 1.789728 -0.049743
v 0.093546 1.711500 -0.000583
v 0.093573 1.707034 -0.026312
v -0.012391 1.730814 0.110808
v 0.012414 1.730814 0.110808
v -0.093044 1.707034 -0.026312
v -0.093017 1.711500 -0.000583
v -0.012547 1.638678 -0.127699
v 0.095459 1.662267 0.006330
v 0.095481 1.657822 -0.019385
v -0.012368 1.681911 0.120350
v 0.012391 1.681911 0.120350
v -0.094930 1.662267 0.006330
v -0.044409 1.785599 -0.010964
v -0.043840 1.781123 -0.036850
v 0.012818 1.793309 0.032973
v -0.012674 1.793309 0.032973
v 0.044228 1.781123 -0.036850
v 0.044784 1.785599 -0.010964
v -0.013240 1.759218 -0.101835
v 0.013143 1.759218 -0.101835
v -0.019279 1.796151 -0.012444
v -0.018944 1.791673 -0.038349
v 0.012474 1.798129 -0.001125
v -0.012101 1.798129 -0.001125
v 0.019344 1.791673 -0.038349
v 0.019662 1.796151 -0.012444
v -0.011978 1.796209 -0.012455
v 0.012361 1.796209 -0.012455
v -0.011760 1.791732 -0.038360
v 0.012160 1.791732 -0.038360
v -0.048932 1.734850 -0.100233
v 0.056990 1.642876 -0.103566
v -0.049184 1.763006 0.062225
v 0.057394 1.676842 0.091614
v 0.049119 1.763006 0.062225
v -0.057371 1.676842 0.091614
v -0.056969 1.642876 -0.103566
v 0.048861 1.734850 -0.100233
v 0.015451 1.785579 -0.046578
v 0.055943 1.691709 -0.108377
v 0.015098 1.793139 -0.002776
v 0.056339 1.724996 0.082904
v -0.014722 1.793139 -0.002776
v -0.056316 1.724996 0.082904
v -0.015089 1.785579 -0.046578
v -0.055922 1.691709 -0.108377
v -0.038884 1.758158 -0.085193
v -0.039002 1.780007 0.041195
v 0.038993 1.780007 0.041195
v 0.038863 1.758158 -0.085193
v -0.028938 1.771153 -0.069779
v -0.028947 1.787198 0.023092
v 0.029122 1.787198 0.023092
v 0.029107 1.771153 -0.069779
v -0.011020 1.639027 -0.123724
v 0.011042 1.639027 -0.123724
v -0.076419 1.747296 -0.030472
v -0.076797 1.751325 -0.007589
v 0.091589 1.657856 -0.017956
v 0.091580 1.661905 0.004938
v -0.011266 1.766762 0.081912
v 0.011181 1.766762 0.081912
v 0.010887 1.681150 0.116425
v -0.010865 1.681150 0.116425
v 0.077228 1.751325 -0.007589
v 0.076864 1.747296 -0.030472
v -0.091051 1.661905 0.004938
v -0.091060 1.657856 -0.017956
v -0.011454 1.731979 -0.117969
v 0.011362 1.731979 -0.117969
v 0.011472 1.785760 -0.048354
v -0.011110 1.785760 -0.048354
v 0.011028 1.688056 -0.128105
v -0.011007 1.688056 -0.128105
v 0.018802 1.791863 -0.013090
v 0.018545 1.787850 -0.036300
v 0.089785 1.710506 -0.001904
v 0.089826 1.706467 -0.024726
v -0.010768 1.793927 -0.001115
v 0.011142 1.793927 -0.001115
v -0.010842 1.729328 0.107184
v 0.010865 1.729328 0.107184
v -0.018145 1.787850 -0.036300
v -0.018418 1.791863 -0.013090
v -0.089297 1.706467 -0.024726
v -0.089256 1.710506 -0.001904
v -0.059425 1.771590 -0.010342
v -0.058780 1.767567 -0.033382
v 0.011435 1.782900 0.055273
v -0.011511 1.782900 0.055273
v 0.059169 1.767567 -0.033382
v 0.059797 1.771590 -0.010342
v -0.011707 1.756206 -0.099070
v 0.011618 1.756206 -0.099070
v 0.011591 1.770064 -0.078710
v -0.011449 1.770064 -0.078711
v -0.042487 1.781677 -0.011667
v -0.042020 1.777648 -0.034871
v 0.011419 1.789222 0.032095
v -0.011270 1.789222 0.032095
v 0.042408 1.777648 -0.034871
v 0.042863 1.781677 -0.011667
v -0.010993 1.791983 -0.012756
v 0.011377 1.791983 -0.012756
v -0.010807 1.787852 -0.036658
v 0.011207 1.787852 -0.036658
v 0.060966 1.769677 -0.033978
v 0.061627 1.773775 -0.010489
v 0.079558 1.752766 -0.007544
v 0.079194 1.748647 -0.030999
v 0.011412 1.688322 -0.130702
v 0.011736 1.733231 -0.120371
v 0.011760 1.772555 -0.080227
v -0.011289 1.788498 -0.049328
v 0.011650 1.788498 -0.049328
v 0.092340 1.711077 -0.001713
v 0.092377 1.706953 -0.025096
v 0.011316 1.638786 -0.126459
v -0.011295 1.638786 -0.126459
v 0.094275 1.662045 0.005120
v 0.094324 1.657948 -0.018132
v -0.011131 1.681673 0.119128
v 0.011154 1.681673 0.119128
v -0.093795 1.657948 -0.018132
v -0.093746 1.662045 0.005120
v 0.043697 1.780202 -0.035460
v 0.044173 1.784281 -0.011970
v 0.011894 1.758260 -0.100967
v 0.019110 1.790602 -0.036976
v 0.019385 1.794688 -0.013385
v -0.011461 1.794551 -0.012706
v 0.011844 1.794551 -0.012706
v -0.011260 1.790254 -0.037567
v 0.011660 1.790254 -0.037567
v -0.010206 1.623845 0.138779
v 0.010229 1.623845 0.138779
v -0.009185 1.623607 0.137557
v 0.009208 1.623607 0.137557
v 0.058777 1.677062 0.092664
v -0.012547 1.638949 -0.124614
v 0.012568 1.638949 -0.124614
v 0.092545 1.662144 0.006348
v -0.012368 1.681321 0.117309
v 0.012391 1.681321 0.117309
v 0.012568 1.638678 -0.127699
v -0.094952 1.657822 -0.019385
v -0.083478 1.699754 -0.064788
v -0.071865 1.742058 -0.063871
v -0.055637 1.764078 -0.058319
v 0.083737 1.699754 -0.064788
v 0.072035 1.742058 -0.063871
v 0.055809 1.764078 -0.058319
v 0.040308 1.775695 -0.052036
v 0.017427 1.787928 -0.042182
v -0.040047 1.775695 -0.052036
v -0.017026 1.787928 -0.042182
v -0.011747 1.787736 -0.043294
v 0.012148 1.787736 -0.043294
v -0.011749 1.790730 -0.044051
v 0.012149 1.790730 -0.044051
v 0.084228 1.650971 -0.057592
v -0.083969 1.650971 -0.057592
v -0.082349 1.699662 -0.063450
v -0.070862 1.741524 -0.062564
v -0.054873 1.763170 -0.057106
v 0.082608 1.699662 -0.063450
v 0.071034 1.741524 -0.062564
v 0.055047 1.763170 -0.057106
v 0.039760 1.774572 -0.050921
v 0.017168 1.786686 -0.041160
v -0.039498 1.774572 -0.050921
v -0.016768 1.786686 -0.041160
v -0.010631 1.786806 -0.042506
v 0.085421 1.650852 -0.058882
v -0.085162 1.650852 -0.058882
v -0.069386 1.757521 0.025604
v -0.053924 1.776626 0.014284
v -0.080333 1.717593 0.038294
v 0.080609 1.717593 0.038294
v 0.069570 1.757521 0.025604
v 0.054112 1.776626 0.014284
v 0.039082 1.785572 0.005117
v 0.017803 1.793901 -0.007621
v -0.038805 1.785572 0.005117
v -0.017424 1.793901 -0.007621
v -0.012034 1.794094 -0.006503
v 0.012413 1.794094 -0.006503
v -0.012040 1.797169 -0.006790
v 0.012418 1.797169 -0.006790
v 0.081073 1.668763 0.044763
v -0.080797 1.668763 0.044763
v -0.068360 1.756633 0.024530
v -0.053106 1.775389 0.013432
v -0.079226 1.717138 0.037062
v 0.079502 1.717138 0.037062
v 0.068546 1.756633 0.024530
v 0.053298 1.775389 0.013432
v 0.038500 1.784151 0.004437
v 0.017510 1.792389 -0.008168
v -0.038220 1.784151 0.004437
v -0.017130 1.792389 -0.008168
v -0.010881 1.792955 -0.006936
v 0.011259 1.792955 -0.006936
v -0.081954 1.669000 0.046016
v 0.082230 1.669000 0.046016
v -0.012553 1.651507 -0.125715
v 0.012397 1.693657 0.114918
v 0.058503 1.689423 0.090422
v 0.012574 1.651507 -0.125715
v 0.092071 1.674592 0.004605
v -0.012374 1.693657 0.114918
v 0.012574 1.651390 -0.128799
v -0.094465 1.670388 -0.021154
v 0.084991 1.663339 -0.060390
v -0.084732 1.663339 -0.060390
v -0.081540 1.681408 0.044044
v 0.081816 1.681408 0.044044
v -0.058090 1.655330 -0.105897
v 0.092094 1.670146 -0.021115
v -0.091542 1.674592 0.004605
v -0.012553 1.651390 -0.128799
v 0.094994 1.670388 -0.021154
v 0.012397 1.694398 0.117914
v -0.094441 1.674838 0.004565
v 0.058111 1.655330 -0.105897
v -0.058480 1.689423 0.090422
v -0.091565 1.670146 -0.021115
v 0.094970 1.674838 0.004565
v -0.012374 1.694398 0.117914
v 0.084256 1.681479 0.044982
v 0.060034 1.689556 0.092310
v 0.084580 1.669071 0.046961
v 0.060193 1.677201 0.094511
v 0.059975 1.654806 -0.108332
v 0.087671 1.663323 -0.061480
v 0.060153 1.642919 -0.107041
v 0.088004 1.651332 -0.059967
v -0.087587 1.663119 -0.062116
v -0.060257 1.655466 -0.108593
v -0.087887 1.650735 -0.060430
v -0.060394 1.642607 -0.107164
v -0.060066 1.689884 0.092638
v -0.084474 1.681439 0.043422
v -0.060496 1.677241 0.095036
v -0.085052 1.668962 0.045513
v -0.003048 1.686672 0.119191
v -0.000000 1.689098 0.122701
v -0.000000 1.691861 0.118246
v 0.003048 1.690132 0.118561
v 0.003048 1.686672 0.119191
v -0.000000 1.684942 0.119506
v -0.003048 1.690132 0.118561
v -0.000000 1.736724 0.106593
v 0.003048 1.732372 0.109573
v -0.003048 1.732372 0.109573
v -0.000000 1.736019 0.111787
v 0.003048 1.735273 0.107586
v -0.000000 1.730922 0.110567
v -0.003048 1.735273 0.107586
v -0.000000 1.773192 0.078341
v 0.003048 1.770459 0.082852
v -0.003048 1.770459 0.082852
v -0.003048 1.772281 0.079845
v -0.000000 1.774695 0.083363
v 0.003048 1.772281 0.079845
v -0.000000 1.769548 0.084356
v 0.003048 1.793409 0.031008
v -0.003048 1.793409 0.031008
v -0.000000 1.797521 0.029870
v -0.000000 1.794220 0.025797
v 0.003048 1.793950 0.027534
v -0.000000 1.793138 0.032746
v -0.003048 1.793950 0.027534
v -0.000000 1.648426 -0.128422
v -0.003048 1.643173 -0.127947
v -0.000000 1.644574 -0.131977
v -0.003048 1.646675 -0.128264
v -0.000000 1.641422 -0.127788
v 0.003048 1.643173 -0.127947
v 0.003048 1.646675 -0.128264
v 0.003048 1.690371 -0.131339
v 0.003048 1.693805 -0.130582
v -0.000000 1.692925 -0.134757
v -0.000000 1.695522 -0.130204
v -0.003048 1.693805 -0.130582
v -0.003048 1.690371 -0.131339
v -0.000000 1.688654 -0.131717
v -0.000000 1.739563 -0.116971
v -0.003048 1.738172 -0.118047
v 0.003048 1.738172 -0.118047
v -0.000000 1.739162 -0.122197
v -0.003048 1.735392 -0.120200
v -0.000000 1.734001 -0.121276
v 0.003048 1.735392 -0.120200
v -0.000000 1.776907 -0.074166
v -0.003048 1.776089 -0.075722
v -0.003048 1.774454 -0.078835
v -0.000000 1.773636 -0.080391
v -0.000000 1.778713 -0.079087
v 0.003048 1.774454 -0.078835
v 0.003048 1.776089 -0.075722
v -0.000030 1.793000 -0.027455
v 0.003019 1.793314 -0.025725
v -0.000030 1.797453 -0.024690
v -0.000030 1.794256 -0.020536
v -0.003078 1.793942 -0.022265
v -0.003078 1.793314 -0.025725
v 0.003019 1.793942 -0.022265
v 0.058743 1.681643 0.093953
v 0.058099 1.684159 0.098507
v 0.056201 1.680078 0.095816
v 0.053540 1.681982 0.097103
v 0.053420 1.685451 0.096527
v 0.055962 1.687017 0.094664
v 0.058624 1.685113 0.093377
v 0.085786 1.671980 0.039666
v 0.084092 1.676296 0.044954
v 0.084689 1.677602 0.041741
v 0.085536 1.675444 0.039097
v 0.088706 1.674553 0.043179
v 0.085189 1.670674 0.042879
v 0.084342 1.672832 0.045523
v 0.095001 1.667619 -0.010482
v 0.095167 1.664124 -0.010134
v 0.094978 1.664719 -0.004069
v 0.098871 1.666363 -0.007174
v 0.094824 1.669664 -0.007623
v 0.095156 1.662673 -0.006927
v 0.094813 1.668214 -0.004417
v 0.090752 1.716758 -0.014184
v 0.091418 1.714515 -0.016813
v 0.092601 1.711280 -0.016105
v 0.093118 1.710288 -0.012768
v 0.095595 1.714822 -0.013656
v 0.092451 1.712531 -0.010140
v 0.091268 1.715766 -0.010848
v 0.076681 1.755100 -0.021367
v 0.079046 1.752597 -0.020658
v 0.080087 1.752049 -0.017342
v 0.078762 1.754005 -0.014733
v 0.076397 1.756509 -0.015441
v 0.080592 1.757131 -0.018525
v 0.075356 1.757056 -0.018758
v 0.037529 1.786003 -0.024288
v 0.039386 1.784665 -0.026961
v 0.042598 1.783355 -0.026386
v 0.038883 1.786031 -0.021040
v 0.042290 1.788194 -0.024389
v 0.043953 1.783383 -0.023138
v 0.042095 1.784721 -0.020465
v 0.088051 1.653928 -0.059204
v 0.092134 1.656980 -0.057984
v 0.088661 1.653754 -0.055743
v 0.088916 1.656709 -0.053853
v 0.088561 1.659837 -0.055425
v 0.087951 1.660011 -0.058886
v 0.087696 1.657057 -0.060776
v 0.053523 1.646122 -0.109987
v 0.058845 1.650186 -0.107838
v 0.055972 1.651651 -0.109248
v 0.053311 1.649618 -0.110322
v 0.057794 1.647913 -0.112443
v 0.056396 1.644657 -0.108578
v 0.059057 1.646690 -0.107503
v -0.076248 1.754259 -0.023182
v -0.078558 1.752627 -0.016737
v -0.076321 1.755304 -0.017175
v -0.075166 1.756120 -0.020398
v -0.080402 1.755873 -0.020419
v -0.078485 1.751581 -0.022743
v -0.079640 1.750765 -0.019521
v -0.044363 1.782547 -0.024622
v -0.042857 1.782702 -0.027799
v -0.042681 1.787427 -0.025531
v -0.037913 1.785259 -0.025323
v -0.039419 1.785104 -0.022146
v -0.042644 1.783747 -0.021796
v -0.039632 1.784059 -0.028149
v -0.091046 1.713575 -0.017521
v -0.092339 1.711292 -0.010990
v -0.091231 1.714588 -0.011512
v -0.090584 1.715729 -0.014778
v -0.095380 1.713624 -0.014570
v -0.092155 1.710279 -0.016999
v -0.092801 1.709137 -0.013734
v -0.093962 1.666970 -0.010578
v -0.094403 1.664433 -0.004028
v -0.094300 1.667907 -0.004563
v -0.094080 1.669176 -0.007839
v -0.098063 1.665781 -0.007533
v -0.094065 1.663496 -0.010043
v -0.094286 1.662228 -0.006768
v -0.058514 1.645351 -0.107826
v -0.058434 1.648046 -0.112321
v -0.055283 1.645233 -0.109215
v -0.053663 1.648211 -0.110151
v -0.055275 1.651306 -0.109699
v -0.058507 1.651424 -0.108311
v -0.060126 1.648446 -0.107374
v -0.088672 1.655687 -0.054881
v -0.087405 1.659137 -0.060878
v -0.088062 1.660931 -0.057922
v -0.088696 1.659206 -0.054924
v -0.091837 1.657376 -0.058703
v -0.088014 1.653893 -0.057837
v -0.087380 1.655618 -0.060835
v -0.085029 1.673516 0.044035
v -0.089315 1.675320 0.041615
v -0.085690 1.671556 0.041188
v -0.086161 1.673099 0.038063
v -0.085972 1.676602 0.037786
v -0.085311 1.678562 0.040633
v -0.084840 1.677019 0.043758
v -0.054106 1.685736 0.095635
v -0.058627 1.680449 0.094602
v -0.059334 1.683645 0.093309
v -0.057073 1.686289 0.093826
v -0.058205 1.684020 0.098416
v -0.053399 1.682541 0.096928
v -0.055660 1.679897 0.096411
vt 0.551538 0.625947
vt 0.540937 0.703987
vt 0.440113 0.692701
vt 0.445297 0.616052
vt 0.606383 0.803793
vt 0.696337 0.785127
vt 0.712171 0.843396
vt 0.647704 0.863774
vt 0.430363 0.622886
vt 0.508016 0.638399
vt 0.486246 0.740776
vt 0.411472 0.733457
vt 0.339147 0.790144
vt 0.425415 0.780639
vt 0.410102 0.838454
vt 0.344716 0.846714
vt 0.613797 0.351771
vt 0.617558 0.272004
vt 0.724518 0.277565
vt 0.731200 0.354140
vt 0.509787 0.798299
vt 0.471946 0.856654
vt 0.568447 0.846057
vt 0.568683 0.763598
vt 0.621833 0.784611
vt 0.623022 0.846841
vt 0.714373 0.072446
vt 0.675768 0.087963
vt 0.649317 0.027055
vt 0.656426 0.023707
vt 0.800157 0.623210
vt 0.791180 0.702450
vt 0.682160 0.695801
vt 0.683176 0.616450
vt 0.825145 0.264280
vt 0.837291 0.342143
vt 0.350157 0.888876
vt 0.395177 0.883042
vt 0.369886 0.944161
vt 0.359404 0.947986
vt 0.772501 0.894709
vt 0.808133 0.905403
vt 0.775090 0.956533
vt 0.765206 0.953328
vt 0.686736 0.904513
vt 0.727459 0.888329
vt 0.753364 0.951043
vt 0.745875 0.954426
vt 0.662749 0.803605
vt 0.682319 0.767049
vt 0.723327 0.827843
vt 0.719338 0.834526
vt 0.664086 0.846578
vt 0.720223 0.845915
vt 0.630698 0.082996
vt 0.598763 0.069467
vt 0.629128 0.020379
vt 0.638786 0.023396
vt 0.434123 0.897708
vt 0.377061 0.947343
vt 0.621761 0.182101
vt 0.554786 0.163560
vt 0.578028 0.107841
vt 0.626108 0.125423
vt 0.327794 0.620680
vt 0.333075 0.700308
vt 0.247851 0.716139
vt 0.236895 0.633640
vt 0.595714 0.680996
vt 0.647799 0.726235
vt 0.572141 0.706697
vt 0.564920 0.623386
vt 0.405678 0.844028
vt 0.481174 0.843817
vt 0.482559 0.927481
vt 0.405678 0.930567
vt 0.791884 0.170622
vt 0.707916 0.190009
vt 0.691438 0.132503
vt 0.752790 0.113028
vt 0.532097 0.257752
vt 0.879005 0.713581
vt 0.855029 0.808053
vt 0.783247 0.794403
vt 0.830634 0.865160
vt 0.777594 0.851792
vt 0.774026 0.784279
vt 0.823629 0.698417
vt 0.831787 0.702449
vt 0.781101 0.790002
vt 0.850977 0.632653
vt 0.861660 0.540862
vt 0.870716 0.539970
vt 0.859782 0.634950
vt 0.707041 0.462308
vt 0.664358 0.397311
vt 0.670723 0.390826
vt 0.714869 0.457760
vt 0.739311 0.772148
vt 0.793665 0.701719
vt 0.800373 0.705061
vt 0.745442 0.776411
vt 0.669210 0.761303
vt 0.703828 0.708024
vt 0.710265 0.711768
vt 0.674447 0.766645
vt 0.741035 0.594766
vt 0.732022 0.515536
vt 0.740724 0.512882
vt 0.750021 0.595048
vt 0.704127 0.716698
vt 0.712119 0.719835
vt 0.574042 0.471061
vt 0.546875 0.535506
vt 0.538463 0.533199
vt 0.566232 0.467180
vt 0.723896 0.664449
vt 0.731863 0.598751
vt 0.739311 0.598427
vt 0.731054 0.666612
vt 0.824062 0.523526
vt 0.800707 0.468131
vt 0.807419 0.464795
vt 0.831292 0.521543
vt 0.702312 0.497688
vt 0.708875 0.495052
vt 0.539101 0.622557
vt 0.530214 0.623266
vt 0.600369 0.453136
vt 0.562189 0.571159
vt 0.553783 0.570331
vt 0.593011 0.448988
vt 0.830740 0.598341
vt 0.838379 0.598950
vt 0.820525 0.413722
vt 0.828451 0.409253
vt 0.663473 0.645860
vt 0.686787 0.696579
vt 0.679296 0.700930
vt 0.655145 0.648373
vt 0.688403 0.451633
vt 0.654127 0.569324
vt 0.645467 0.568944
vt 0.680770 0.448559
vt 0.729299 0.838187
vt 0.705727 0.449997
vt 0.682589 0.499421
vt 0.674513 0.496961
vt 0.698457 0.445781
vt 0.756012 0.961921
vt 0.674151 0.573064
vt 0.708283 0.686371
vt 0.700866 0.689289
vt 0.665815 0.573328
vt 0.572108 0.656367
vt 0.597491 0.717413
vt 0.589918 0.721155
vt 0.563935 0.658500
vt 0.622416 0.387219
vt 0.615616 0.381758
vt 0.647451 0.015307
vt 0.637387 0.008370
vt 0.368239 0.955866
vt 0.358347 0.963022
vt 0.349830 0.951216
vt 0.131033 0.182935
vt 0.130871 0.268743
vt 0.051778 0.267654
vt 0.051725 0.182551
vt 0.755651 0.461180
vt 0.668844 0.461124
vt 0.667709 0.380556
vt 0.755230 0.380394
vt 0.128334 0.152629
vt 0.129621 0.279414
vt 0.058878 0.279414
vt 0.059849 0.152629
vt 0.129139 0.436097
vt 0.128056 0.531483
vt 0.059197 0.531483
vt 0.058726 0.436096
vt 0.532027 0.459458
vt 0.530486 0.379053
vt 0.132370 0.403374
vt 0.053439 0.401875
vt 0.128286 0.051352
vt 0.059897 0.051352
vt 0.097187 0.938810
vt 0.096988 0.938616
vt 0.097183 0.938424
vt 0.097371 0.938630
vt 0.131989 0.120838
vt 0.052555 0.119897
vt 0.096708 0.938345
vt 0.096926 0.938137
vt 0.819460 0.460351
vt 0.818488 0.379436
vt 0.130154 0.366859
vt 0.058349 0.366858
vt 0.133620 0.038984
vt 0.054154 0.037391
vt 0.096218 0.937907
vt 0.096484 0.937630
vt 0.903483 0.458747
vt 0.901834 0.377799
vt 0.095742 0.936659
vt 0.095254 0.937101
vt 0.493401 0.558889
vt 0.493401 0.631327
vt 0.413790 0.631988
vt 0.413790 0.558280
vt 0.134333 0.017276
vt 0.054879 0.015332
vt 0.923947 0.377079
vt 0.925954 0.458015
vt 0.061052 0.547212
vt 0.126095 0.547212
vt 0.126126 0.562942
vt 0.061023 0.562941
vt 0.762024 0.795117
vt 0.768610 0.801355
vt 0.643532 0.797112
vt 0.636965 0.802424
vt 0.742471 0.363660
vt 0.735298 0.359698
vt 0.654673 0.807173
vt 0.665815 0.817234
vt 0.660154 0.823503
vt 0.648559 0.812963
vt 0.745280 0.389641
vt 0.739366 0.383625
vt 0.726991 0.758581
vt 0.720893 0.764791
vt 0.665815 0.377635
vt 0.659183 0.372456
vt 0.647915 0.386379
vt 0.652962 0.378809
vt 0.760534 0.379480
vt 0.755844 0.372456
vt 0.647915 0.808606
vt 0.655413 0.812709
vt 0.749206 0.386989
vt 0.739311 0.377939
vt 0.744371 0.372408
vt 0.754657 0.381877
vt 0.582227 0.742848
vt 0.574422 0.746738
vt 0.633953 0.376665
vt 0.627610 0.370717
vt 0.759126 0.396065
vt 0.764971 0.391371
vt 0.655899 0.770180
vt 0.660065 0.776411
vt 0.742471 0.768921
vt 0.737619 0.776167
vt 0.099567 0.941441
vt 0.098457 0.942020
vt 0.098198 0.941004
vt 0.098944 0.940685
vt 0.096872 0.938961
vt 0.096523 0.938871
vt 0.097211 0.936123
vt 0.097307 0.937301
vt 0.097465 0.940275
vt 0.097554 0.939942
vt 0.097926 0.940030
vt 0.098022 0.940376
vt 0.100564 0.938548
vt 0.100564 0.939982
vt 0.099543 0.939693
vt 0.099481 0.938798
vt 0.098261 0.939918
vt 0.098516 0.940194
vt 0.097993 0.938104
vt 0.097884 0.938424
vt 0.097531 0.938317
vt 0.097452 0.937968
vt 0.098255 0.939535
vt 0.097987 0.939274
vt 0.098006 0.939230
vt 0.098328 0.939326
vt 0.094905 0.940102
vt 0.094674 0.938582
vt 0.095862 0.938711
vt 0.095980 0.939647
vt 0.099945 0.941094
vt 0.099204 0.940429
vt 0.097621 0.939719
vt 0.097713 0.939431
vt 0.097769 0.939461
vt 0.097859 0.939783
vt 0.097184 0.939252
vt 0.097456 0.939173
vt 0.097484 0.939222
vt 0.097275 0.939422
vt 0.097451 0.939068
vt 0.097433 0.939112
vt 0.097115 0.939025
vt 0.097587 0.938563
vt 0.097665 0.938886
vt 0.097620 0.938903
vt 0.097812 0.938638
vt 0.097726 0.938910
vt 0.098269 0.939087
vt 0.097977 0.939174
vt 0.097949 0.939124
vt 0.098163 0.938932
vt 0.097813 0.939443
vt 0.098069 0.939715
vt 0.098829 0.938944
vt 0.098494 0.939025
vt 0.098336 0.938780
vt 0.098604 0.938563
vt 0.097034 0.941993
vt 0.096025 0.941505
vt 0.096675 0.940585
vt 0.097304 0.940922
vt 0.098713 0.936384
vt 0.099687 0.937054
vt 0.098873 0.937844
vt 0.098236 0.937445
vt 0.098725 0.939985
vt 0.098456 0.939730
vt 0.098574 0.939397
vt 0.098918 0.939500
vt 0.099156 0.938162
vt 0.096645 0.939419
vt 0.096861 0.939820
vt 0.096365 0.940294
vt 0.096968 0.939318
vt 0.097109 0.939582
vt 0.977966 0.840894
vt 0.977966 0.840894
vt 0.978431 0.752518
vt 0.978431 0.752518
vt 0.944120 0.980112
vt 0.944120 0.980112
vt 0.951380 0.960223
vt 0.951380 0.960223
vt 0.961325 0.920447
vt 0.961325 0.920447
vt 0.795326 0.960223
vt 0.795326 0.960223
vt 0.802161 0.980112
vt 0.802161 0.980112
vt 0.767727 0.840894
vt 0.767727 0.840894
vt 0.785275 0.920447
vt 0.785275 0.920447
vt 0.097667 0.938948
vt 0.097495 0.939116
vt 0.927717 1.000000
vt 0.927717 1.000000
vt 0.097939 0.939231
vt 0.097895 0.939183
vt 0.097665 0.939402
vt 0.097724 0.939349
vt 0.097713 0.938993
vt 0.097773 0.938939
vt 0.782290 0.960223
vt 0.772728 0.924886
vt 0.771527 0.920447
vt 0.750896 0.844207
vt 0.097979 0.938735
vt 0.732168 0.840894
vt 0.767376 0.752518
vt 0.732524 0.752518
vt 0.098143 0.938573
vt 0.098386 0.938330
vt 0.787672 0.980112
vt 0.783315 0.964009
vt 0.097089 0.940042
vt 0.793054 1.000000
vt 0.816288 1.000000
vt 0.788477 0.983086
vt 0.095559 0.941092
vt 0.819857 1.000000
vt 0.564072 1.000000
vt 0.346880 1.000000
vt 0.153731 1.000000
vt 0.100092 0.937528
vt 0.683555 1.000000
vt 0.072283 1.000000
vt 0.767376 0.752518
vt 0.816288 1.000000
vt 0.819857 1.000000
vt 0.782889 0.750852
vt 0.695692 0.789478
vt 0.692787 0.787781
vt 0.780240 0.748753
vt 0.647887 0.789478
vt 0.560672 0.750852
vt 0.563322 0.748753
vt 0.650793 0.787781
vt 0.509190 0.662392
vt 0.495577 0.586078
vt 0.497441 0.583378
vt 0.511463 0.659929
vt 0.515238 0.459815
vt 0.559869 0.369733
vt 0.562502 0.371771
vt 0.517441 0.462241
vt 0.648157 0.322140
vt 0.651020 0.323853
vt 0.695286 0.322140
vt 0.783587 0.369733
vt 0.780955 0.371771
vt 0.692424 0.323853
vt 0.827759 0.459815
vt 0.846922 0.536419
vt 0.845085 0.539140
vt 0.825557 0.462241
vt 0.833893 0.662392
vt 0.831621 0.659929
vt 0.695690 0.795365
vt 0.647885 0.795365
vt 0.650269 0.792999
vt 0.693308 0.792999
vt 0.490030 0.586079
vt 0.490067 0.536419
vt 0.492321 0.538760
vt 0.492233 0.583684
vt 0.922517 0.495094
vt 0.922517 0.573710
vt 0.729083 0.566844
vt 0.729083 0.501960
vt 0.852466 0.536419
vt 0.852515 0.586079
vt 0.850314 0.583684
vt 0.850213 0.538760
vt 0.495613 0.536419
vt 0.497451 0.539140
vt 0.695285 0.316249
vt 0.692931 0.318617
vt 0.648156 0.316249
vt 0.650511 0.318617
vt 0.846971 0.586078
vt 0.845109 0.583378
vt 0.097311 0.939779
vt 0.097468 0.939610
vt 0.097539 0.939162
vt 0.387907 0.522312
vt 0.387907 0.589428
vt 0.372139 0.589273
vt 0.372139 0.522480
vt 0.403675 0.522144
vt 0.498176 0.520571
vt 0.498177 0.590525
vt 0.403675 0.589583
vt 0.566438 0.519587
vt 0.566438 0.590884
vt 0.655757 0.520104
vt 0.655757 0.590355
vt 0.784097 0.521347
vt 0.784097 0.589418
vt 0.521522 0.752518
vt 0.478478 0.752518
vt 0.478478 0.752518
vt 0.521522 0.752518
vt 0.555971 0.462634
vt 0.555660 0.457376
vt 0.738582 0.457376
vt 0.738914 0.462196
vt 0.557203 0.530232
vt 0.557203 0.463160
vt 0.740552 0.469018
vt 0.740552 0.524374
vt 0.738914 0.452105
vt 0.738604 0.457363
vt 0.555660 0.456926
vt 0.555992 0.452105
vt 0.885916 0.521394
vt 0.920830 0.521410
vt 0.920830 0.589355
vt 0.885916 0.589371
vt 0.232534 0.775084
vt 0.232624 0.752518
vt 0.232624 0.752518
vt 0.232534 0.775084
vt 0.478360 0.775084
vt 0.478478 0.752518
vt 0.478478 0.752518
vt 0.478360 0.775084
vt 0.133832 0.515325
vt 0.134333 0.553713
vt 0.055452 0.552273
vt 0.054938 0.513869
vt 0.417942 0.457950
vt 0.378822 0.457433
vt 0.377341 0.377079
vt 0.416446 0.377583
vt 0.978313 0.775084
vt 0.978431 0.752518
vt 0.978432 0.752518
vt 0.978313 0.775084
vt 0.782636 0.480388
vt 0.823600 0.372456
vt 0.830038 0.377033
vt 0.789540 0.482166
vt 0.645467 0.366134
vt 0.639580 0.359698
vt 0.296871 0.865037
vt 0.318427 0.902898
vt 0.272426 0.809822
vt 0.522693 0.340516
vt 0.750021 0.805956
vt 0.756120 0.812709
vt 0.766331 0.969239
vt 0.735085 0.848682
vt 0.722184 0.855559
vt 0.573918 0.914879
vt 0.630186 0.898040
vt 0.670487 0.881179
vt 0.891145 0.633228
vt 0.557175 0.366217
vt 0.839077 0.665340
vt 0.557295 0.755285
vt 0.760534 0.771642
vt 0.753578 0.775457
vt 0.645467 0.824795
vt 0.638333 0.829755
vt 0.750021 0.332388
vt 0.757165 0.326808
vt 0.655899 0.422044
vt 0.662066 0.418644
vt 0.267476 0.752518
vt 0.267567 0.775084
vt 0.267567 0.775084
vt 0.267476 0.752518
vt 0.521522 0.752518
vt 0.521640 0.775084
vt 0.521640 0.775084
vt 0.521522 0.752518
vt 0.767376 0.752518
vt 0.767466 0.775084
vt 0.767466 0.775084
vt 0.767376 0.752518
vt 0.128269 0.016623
vt 0.059914 0.016623
vt 0.021569 0.752518
vt 0.021687 0.775084
vt 0.021687 0.775084
vt 0.021569 0.752518
vt 0.830038 0.751713
vt 0.825177 0.758551
vt 0.760534 0.625351
vt 0.766918 0.623586
vt 0.504267 0.664303
vt 0.786757 0.755603
vt 0.592000 0.752518
vt 0.592048 0.775084
vt 0.732524 0.752518
vt 0.732433 0.775084
vt 0.662169 0.775084
vt 0.662190 0.752518
vt 0.510766 0.458017
vt 0.899715 0.752518
vt 0.899105 0.775084
vt 0.833311 0.752518
vt 0.833335 0.775084
vt 0.768210 0.638402
vt 0.819419 0.740238
vt 0.812865 0.745140
vt 0.760340 0.640499
vt 0.750853 0.488899
vt 0.742471 0.486432
vt 0.814214 0.359698
vt 0.819419 0.366588
vt 0.744208 0.753183
vt 0.744178 0.775579
vt 1.000000 0.775827
vt 1.000000 0.753515
vt 0.488356 0.775332
vt 0.488416 0.752850
vt 0.655899 0.554881
vt 0.647785 0.556869
vt 0.588739 0.451852
vt 0.593235 0.445907
vt 0.640879 0.685785
vt 0.632849 0.685026
vt 0.594395 0.776411
vt 0.588739 0.772216
vt 0.337810 0.752518
vt 0.337831 0.775084
vt 0.408096 0.775084
vt 0.408144 0.752518
vt 0.571953 0.402560
vt 0.578939 0.397649
vt 0.621809 0.509090
vt 0.615789 0.515523
vt 0.647915 0.670254
vt 0.640275 0.667518
vt 0.577200 0.812709
vt 0.571953 0.805328
vt 0.833656 0.460773
vt 0.786904 0.365216
vt 0.811209 0.709164
vt 0.812261 0.708557
vt 0.812261 0.707342
vt 0.811209 0.706735
vt 0.810157 0.707342
vt 0.810157 0.708557
vt 0.813654 0.708341
vt 0.814497 0.708341
vt 0.813848 0.709890
vt 0.812811 0.708341
vt 0.813004 0.709890
vt 0.811967 0.708341
vt 0.812161 0.709890
vt 0.811124 0.708341
vt 0.811318 0.709890
vt 0.810281 0.708341
vt 0.810474 0.709890
vt 0.809437 0.708341
vt 0.809631 0.709890
vt 0.811209 0.709164
vt 0.812261 0.708557
vt 0.812261 0.707342
vt 0.811209 0.706735
vt 0.810157 0.707342
vt 0.810157 0.708557
vt 0.813654 0.708341
vt 0.814497 0.708341
vt 0.813848 0.709890
vt 0.812811 0.708341
vt 0.813004 0.709890
vt 0.811981 0.708470
vt 0.812161 0.709890
vt 0.811124 0.708341
vt 0.811318 0.709890
vt 0.810281 0.708341
vt 0.810474 0.709890
vt 0.809437 0.708341
vt 0.809631 0.709890
vt 0.811209 0.709164
vt 0.812261 0.708557
vt 0.812261 0.707342
vt 0.811209 0.706735
vt 0.810157 0.707342
vt 0.810157 0.708557
vt 0.813654 0.708341
vt 0.814497 0.708341
vt 0.813848 0.709890
vt 0.812811 0.708341
vt 0.813004 0.709890
vt 0.811967 0.708341
vt 0.812161 0.709890
vt 0.811124 0.708341
vt 0.811318 0.709890
vt 0.810281 0.708341
vt 0.810474 0.709890
vt 0.809437 0.708341
vt 0.809631 0.709890
vt 0.811209 0.709164
vt 0.812261 0.708557
vt 0.812261 0.707342
vt 0.811209 0.706735
vt 0.810157 0.707342
vt 0.810157 0.708557
vt 0.813654 0.708341
vt 0.814497 0.708341
vt 0.813848 0.709890
vt 0.812811 0.708341
vt 0.813004 0.709890
vt 0.811967 0.708341
vt 0.812161 0.709890
vt 0.811124 0.708341
vt 0.811318 0.709890
vt 0.810281 0.708341
vt 0.810474 0.709890
vt 0.809437 0.708341
vt 0.809631 0.709890
vt 0.811209 0.709164
vt 0.812261 0.708557
vt 0.812261 0.707342
vt 0.811209 0.706735
vt 0.810157 0.707342
vt 0.810157 0.708557
vt 0.813654 0.708341
vt 0.814497 0.708341
vt 0.813848 0.709890
vt 0.812811 0.708341
vt 0.813004 0.709890
vt 0.811967 0.708341
vt 0.812161 0.709890
vt 0.811124 0.708341
vt 0.811318 0.709890
vt 0.810281 0.708341
vt 0.810474 0.709890
vt 0.809437 0.708341
vt 0.809631 0.709890
vt 0.811209 0.709164
vt 0.812261 0.708557
vt 0.812261 0.707342
vt 0.811209 0.706735
vt 0.810157 0.707342
vt 0.810157 0.708557
vt 0.813654 0.708341
vt 0.814497 0.708341
vt 0.813848 0.709890
vt 0.812811 0.708340
vt 0.813004 0.709890
vt 0.811967 0.708341
vt 0.812161 0.709890
vt 0.811124 0.708341
vt 0.811318 0.709890
vt 0.810281 0.708341
vt 0.810474 0.709890
vt 0.809437 0.708341
vt 0.809631 0.709890
vt 0.811209 0.709164
vt 0.812261 0.708557
vt 0.812261 0.707342
vt 0.811209 0.706735
vt 0.810157 0.707342
vt 0.810157 0.708557
vt 0.813654 0.708340
vt 0.814497 0.708341
vt 0.813848 0.709890
vt 0.812811 0.708341
vt 0.813004 0.709890
vt 0.811967 0.708341
vt 0.812161 0.709890
vt 0.811124 0.708341
vt 0.811318 0.709890
vt 0.810281 0.708341
vt 0.810474 0.709890
vt 0.809437 0.708341
vt 0.809631 0.709890
vt 0.811209 0.709164
vt 0.812261 0.708557
vt 0.812261 0.707342
vt 0.811209 0.706735
vt 0.810157 0.707342
vt 0.810157 0.708557
vt 0.813654 0.708341
vt 0.814497 0.708341
vt 0.813848 0.709890
vt 0.812811 0.708341
vt 0.813004 0.709890
vt 0.811967 0.708341
vt 0.812161 0.709890
vt 0.811124 0.708341
vt 0.811318 0.709890
vt 0.810281 0.708341
vt 0.810474 0.709890
vt 0.809437 0.708341
vt 0.809631 0.709890
vt 0.811209 0.709164
vt 0.812261 0.708557
vt 0.812261 0.707342
vt 0.811209 0.706735
vt 0.810157 0.707342
vt 0.810157 0.708557
vt 0.813654 0.708341
vt 0.814497 0.708340
vt 0.813848 0.709890
vt 0.812811 0.708341
vt 0.813004 0.709890
vt 0.811967 0.708341
vt 0.812161 0.709890
vt 0.811124 0.708341
vt 0.811318 0.709890
vt 0.810281 0.708341
vt 0.810474 0.709890
vt 0.809437 0.708341
vt 0.809631 0.709890
vt 0.811209 0.709164
vt 0.812261 0.708557
vt 0.812261 0.707342
vt 0.811209 0.706735
vt 0.810157 0.707342
vt 0.810157 0.708557
vt 0.813668 0.708464
vt 0.814497 0.708341
vt 0.813848 0.709890
vt 0.812825 0.708460
vt 0.813004 0.709890
vt 0.811999 0.708532
vt 0.812161 0.709890
vt 0.811147 0.708462
vt 0.811318 0.709890
vt 0.810281 0.708341
vt 0.810474 0.709890
vt 0.809437 0.708341
vt 0.809631 0.709890
vt 0.811209 0.709164
vt 0.812261 0.708557
vt 0.812261 0.707342
vt 0.811209 0.706735
vt 0.810157 0.707342
vt 0.810157 0.708557
vt 0.813654 0.708341
vt 0.814497 0.708341
vt 0.813848 0.709890
vt 0.812811 0.708340
vt 0.813004 0.709890
vt 0.811967 0.708341
vt 0.812161 0.709890
vt 0.811124 0.708341
vt 0.811318 0.709890
vt 0.810281 0.708341
vt 0.810474 0.709890
vt 0.809437 0.708341
vt 0.809631 0.709890
vt 0.811209 0.709164
vt 0.812261 0.708557
vt 0.812261 0.707342
vt 0.811209 0.706735
vt 0.810157 0.707342
vt 0.810157 0.708557
vt 0.813654 0.708341
vt 0.814497 0.708341
vt 0.813848 0.709890
vt 0.812811 0.708341
vt 0.813004 0.709890
vt 0.811967 0.708341
vt 0.812161 0.709890
vt 0.811124 0.708341
vt 0.811318 0.709890
vt 0.810281 0.708341
vt 0.810474 0.709890
vt 0.809437 0.708341
vt 0.809631 0.709890
vt 0.811209 0.709164
vt 0.812261 0.708557
vt 0.812261 0.707342
vt 0.811209 0.706735
vt 0.810157 0.707342
vt 0.810157 0.708557
vt 0.813654 0.708341
vt 0.814497 0.708340
vt 0.813848 0.709890
vt 0.812811 0.708341
vt 0.813004 0.709890
vt 0.811967 0.708341
vt 0.812161 0.709890
vt 0.811124 0.708341
vt 0.811318 0.709890
vt 0.810281 0.708341
vt 0.810474 0.709890
vt 0.809437 0.708341
vt 0.809631 0.709890
vt 0.811209 0.709164
vt 0.812261 0.708557
vt 0.812261 0.707342
vt 0.811209 0.706735
vt 0.810157 0.707342
vt 0.810157 0.708557
vt 0.813654 0.708341
vt 0.814497 0.708341
vt 0.813848 0.709890
vt 0.812811 0.708341
vt 0.813004 0.709890
vt 0.811967 0.708341
vt 0.812161 0.709890
vt 0.811124 0.708341
vt 0.811318 0.709890
vt 0.810281 0.708341
vt 0.810474 0.709890
vt 0.809437 0.708341
vt 0.809631 0.709890
vt 0.811209 0.709164
vt 0.812261 0.708557
vt 0.812261 0.707342
vt 0.811209 0.706735
vt 0.810157 0.707342
vt 0.810157 0.708557
vt 0.813654 0.708341
vt 0.814497 0.708341
vt 0.813848 0.709890
vt 0.812811 0.708341
vt 0.813004 0.709890
vt 0.811967 0.708341
vt 0.812161 0.709890
vt 0.811124 0.708341
vt 0.811318 0.709890
vt 0.810281 0.708341
vt 0.810474 0.709890
vt 0.809437 0.708341
vt 0.809631 0.709890
vt 0.811209 0.709164
vt 0.812261 0.708557
vt 0.812261 0.707342
vt 0.811209 0.706735
vt 0.810157 0.707342
vt 0.810157 0.708557
vt 0.813668 0.708464
vt 0.814497 0.708341
vt 0.813848 0.709890
vt 0.812825 0.708460
vt 0.813004 0.709890
vt 0.811999 0.708532
vt 0.812161 0.709890
vt 0.811147 0.708462
vt 0.811318 0.709890
vt 0.810281 0.708341
vt 0.810474 0.709890
vt 0.809437 0.708341
vt 0.809631 0.709890
vt 0.811209 0.709164
vt 0.812261 0.708557
vt 0.812261 0.707342
vt 0.811209 0.706735
vt 0.810157 0.707342
vt 0.810157 0.708557
vt 0.813654 0.708341
vt 0.814497 0.708341
vt 0.813848 0.709890
vt 0.812811 0.708340
vt 0.813004 0.709890
vt 0.811967 0.708341
vt 0.812161 0.709890
vt 0.811124 0.708341
vt 0.811318 0.709890
vt 0.810281 0.708341
vt 0.810474 0.709890
vt 0.809437 0.708341
vt 0.809631 0.709890
vt 0.809437 0.708341
vt 0.810281 0.708341
vt 0.809631 0.709890
vt 0.811124 0.708341
vt 0.810474 0.709890
vt 0.811967 0.708341
vt 0.811318 0.709890
vt 0.812811 0.708341
vt 0.812161 0.709890
vt 0.813654 0.708341
vt 0.813004 0.709890
vt 0.814497 0.708340
vt 0.813848 0.709890
vt 0.811209 0.709164
vt 0.812261 0.708557
vt 0.812261 0.707342
vt 0.811209 0.706735
vt 0.810157 0.707342
vt 0.810157 0.708557
vt 0.811209 0.709164
vt 0.812261 0.708557
vt 0.812261 0.707342
vt 0.811209 0.706735
vt 0.810157 0.707342
vt 0.810157 0.708557
vt 0.813654 0.708341
vt 0.814497 0.708340
vt 0.813848 0.709890
vt 0.812811 0.708341
vt 0.813004 0.709890
vt 0.811967 0.708341
vt 0.812161 0.709890
vt 0.811124 0.708341
vt 0.811318 0.709890
vt 0.810281 0.708341
vt 0.810474 0.709890
vt 0.809437 0.708341
vt 0.809631 0.709890
vt 0.809437 0.708341
vt 0.810281 0.708341
vt 0.809631 0.709890
vt 0.811124 0.708341
vt 0.810474 0.709890
vt 0.811967 0.708341
vt 0.811318 0.709890
vt 0.812811 0.708341
vt 0.812161 0.709890
vt 0.813654 0.708341
vt 0.813004 0.709890
vt 0.814497 0.708340
vt 0.813848 0.709890
vt 0.811209 0.709164
vt 0.812261 0.708557
vt 0.812261 0.707342
vt 0.811209 0.706735
vt 0.810157 0.707342
vt 0.810157 0.708557
vt 0.809437 0.708341
vt 0.810281 0.708341
vt 0.809631 0.709890
vt 0.811124 0.708341
vt 0.810474 0.709890
vt 0.811967 0.708341
vt 0.811318 0.709890
vt 0.812811 0.708341
vt 0.812161 0.709890
vt 0.813654 0.708341
vt 0.813004 0.709890
vt 0.814497 0.708340
vt 0.813848 0.709890
vt 0.811209 0.709164
vt 0.812261 0.708557
vt 0.812261 0.707342
vt 0.811209 0.706735
vt 0.810157 0.707342
vt 0.810157 0.708557
vt 0.811209 0.709164
vt 0.812261 0.708557
vt 0.812261 0.707342
vt 0.811209 0.706735
vt 0.810157 0.707342
vt 0.810157 0.708557
vt 0.813668 0.708464
vt 0.814497 0.708341
vt 0.813848 0.709890
vt 0.812825 0.708460
vt 0.813004 0.709890
vt 0.811999 0.708532
vt 0.812161 0.709890
vt 0.811147 0.708462
vt 0.811318 0.709890
vt 0.810281 0.708341
vt 0.810474 0.709890
vt 0.809437 0.708341
vt 0.809631 0.709890
vt 0.811209 0.709164
vt 0.812261 0.708557
vt 0.812261 0.707342
vt 0.811209 0.706735
vt 0.810157 0.707342
vt 0.810157 0.708557
vt 0.813654 0.708341
vt 0.814497 0.708341
vt 0.813848 0.709890
vt 0.812811 0.708340
vt 0.813004 0.709890
vt 0.811967 0.708341
vt 0.812161 0.709890
vt 0.811124 0.708341
vt 0.811318 0.709890
vt 0.810281 0.708341
vt 0.810474 0.709890
vt 0.809437 0.708341
vt 0.809631 0.709890
vt 0.811209 0.709164
vt 0.812261 0.708557
vt 0.812261 0.707342
vt 0.811209 0.706735
vt 0.810157 0.707342
vt 0.810157 0.708557
vt 0.813668 0.708464
vt 0.814497 0.708341
vt 0.813848 0.709890
vt 0.812825 0.708460
vt 0.813004 0.709890
vt 0.811999 0.708532
vt 0.812161 0.709890
vt 0.811147 0.708462
vt 0.811318 0.709890
vt 0.810281 0.708341
vt 0.810474 0.709890
vt 0.809437 0.708341
vt 0.809631 0.709890
vt 0.811209 0.709164
vt 0.812261 0.708557
vt 0.812261 0.707342
vt 0.811209 0.706735
vt 0.810157 0.707342
vt 0.810157 0.708557
vt 0.813654 0.708341
vt 0.814497 0.708341
vt 0.813848 0.709890
vt 0.812811 0.708340
vt 0.813004 0.709890
vt 0.811967 0.708341
vt 0.812161 0.709890
vt 0.811124 0.708341
vt 0.811318 0.709890
vt 0.810281 0.708341
vt 0.810474 0.709890
vt 0.809437 0.708341
vt 0.809631 0.709890
vn 0.4033 -0.0804 -0.9115
vn 0.3292 0.8043 0.4946
vn -0.4745 0.1673 0.8642
vn 0.6480 0.5922 -0.4789
vn -0.8649 -0.0306 -0.5011
vn 0.3117 0.5918 -0.7434
vn -0.6857 0.6911 0.2282
vn -0.1575 0.8779 -0.4522
vn 0.8959 0.0986 0.4332
vn -0.4033 -0.0804 -0.9115
vn 0.3454 0.8796 -0.3272
vn 0.3902 0.9194 -0.0488
vn 0.1629 0.9771 0.1368
vn -0.1626 0.9773 0.1358
vn -0.3583 0.9335 0.0140
vn -0.3863 0.8939 -0.2275
vn -0.4706 0.8782 0.0856
vn 0.1578 0.8774 -0.4531
vn -0.7533 0.6163 -0.2299
vn 0.9836 0.0122 -0.1800
vn -0.3294 0.8045 0.4943
vn 0.4745 0.1673 0.8642
vn 0.8190 0.2355 -0.5233
vn -0.9698 0.0696 0.2338
vn -0.3120 0.5920 -0.7431
vn -0.3863 0.2166 -0.8966
vn -0.8585 0.3566 0.3686
vn -0.9416 0.2658 -0.2066
vn 0.4392 0.4955 0.7494
vn -0.4394 0.4947 0.7498
vn 0.9299 0.3146 0.1904
vn 0.7497 0.6557 0.0895
vn 0.3861 0.2175 -0.8965
vn 0.2126 0.8069 -0.5511
vn 0.2203 0.9406 0.2584
vn -0.5215 0.8231 -0.2247
vn 0.4460 0.8040 -0.3933
vn -0.2199 0.9412 0.2565
vn -0.2121 0.8080 -0.5496
vn 0.5149 0.8572 -0.0060
vn -0.9999 -0.0008 -0.0171
vn -1.0000 -0.0065 0.0029
vn -0.0118 0.1660 0.9861
vn -1.0000 -0.0005 -0.0000
vn 0.0113 -0.1662 -0.9860
vn -0.0159 0.1512 0.9884
vn -0.0107 0.1419 0.9898
vn 1.0000 0.0020 0.0052
vn 0.0142 -0.1529 -0.9881
vn -0.9999 0.0062 0.0136
vn 0.0101 -0.1429 -0.9897
vn 1.0000 -0.0061 -0.0023
vn 1.0000 -0.0067 0.0032
vn -1.0000 -0.0069 -0.0012
vn -1.0000 -0.0089 0.0042
vn -0.0124 -0.1617 -0.9868
vn -0.0101 -0.1429 -0.9897
vn 0.0000 0.9854 -0.1703
vn 0.0143 0.1605 0.9869
vn 0.0107 0.1419 0.9898
vn 1.0000 -0.0001 -0.0055
vn 1.0000 0.0016 0.0048
vn -0.9999 0.0010 -0.0147
vn -0.7617 0.6351 -0.1281
vn 0.7608 0.6363 -0.1278
vn 0.0000 0.2242 -0.9745
vn 0.0000 0.8884 -0.4590
vn 0.9556 0.2891 -0.0575
vn -0.9562 0.2871 -0.0574
vn 0.0000 -0.0862 -0.9963
vn 0.0000 -0.9648 -0.2631
vn -0.5209 0.8387 -0.1588
vn 0.0000 -0.8553 -0.5181
vn 0.5209 0.8388 -0.1585
vn 0.0000 0.6141 -0.7892
vn 0.0000 0.8237 -0.5670
vn -0.3917 0.9055 -0.1634
vn 0.0000 -0.5595 -0.8288
vn 0.3918 0.9055 -0.1632
vn 0.0000 -0.1884 -0.9821
vn -0.0082 0.9853 -0.1704
vn 0.0082 0.9853 -0.1704
vn 0.0000 0.9848 -0.1734
vn 1.0000 -0.0053 0.0038
vn -0.9999 -0.0027 -0.0104
vn 0.9999 -0.0007 -0.0103
vn -0.0036 -0.1394 -0.9902
vn 1.0000 -0.0026 -0.0096
vn 0.0159 0.1513 0.9884
vn 0.0118 0.1660 0.9861
vn -0.0113 -0.1662 -0.9860
vn 1.0000 -0.0004 0.0001
vn -0.0142 -0.1529 -0.9881
vn 0.0000 0.1702 0.9854
vn -0.9999 -0.0101 -0.0016
vn -0.0038 0.1390 0.9903
vn -1.0000 -0.0012 -0.0017
vn 1.0000 -0.0076 -0.0013
vn 0.9927 0.0337 0.1155
vn 0.0124 -0.1617 -0.9868
vn -0.0143 0.1605 0.9869
vn -0.9999 0.0037 0.0109
vn -0.0000 -0.1702 -0.9854
vn -0.4062 0.0811 0.9102
vn -0.3344 -0.8049 -0.4903
vn 0.4764 -0.1662 -0.8634
vn -0.6454 -0.5928 0.4818
vn 0.8641 0.0313 0.5023
vn -0.3171 -0.5933 0.7399
vn 0.6829 -0.6931 -0.2308
vn 0.1845 -0.8767 0.4442
vn -0.8949 -0.0984 -0.4353
vn 0.4062 0.0811 0.9102
vn -0.3380 -0.8791 0.3361
vn -0.3858 -0.9222 0.0278
vn -0.1901 -0.9732 -0.1294
vn 0.1897 -0.9734 -0.1281
vn 0.3511 -0.9361 -0.0227
vn 0.3811 -0.8897 0.2515
vn 0.4660 -0.8803 -0.0893
vn -0.1848 -0.8761 0.4452
vn 0.7501 -0.6164 0.2395
vn -0.9828 -0.0102 0.1846
vn 0.3347 -0.8050 -0.4898
vn -0.4764 -0.1662 -0.8634
vn -0.8178 -0.2353 0.5252
vn 0.9689 -0.0693 -0.2376
vn 0.3174 -0.5935 0.7396
vn 0.3897 -0.2172 0.8950
vn 0.8570 -0.3579 -0.3708
vn 0.9405 -0.2646 0.2131
vn -0.4421 -0.4958 -0.7475
vn 0.4423 -0.4949 -0.7479
vn -0.9286 -0.3160 -0.1947
vn -0.7462 -0.6588 -0.0953
vn -0.3895 -0.2181 0.8948
vn -0.2230 -0.8079 0.5454
vn -0.2308 -0.9397 -0.2523
vn 0.5155 -0.8232 0.2380
vn -0.4416 -0.8047 0.3969
vn 0.2303 -0.9404 -0.2504
vn 0.2226 -0.8091 0.5438
vn -0.5099 -0.8603 -0.0036
vn -0.9924 -0.0099 -0.1226
vn -0.9970 0.0625 -0.0467
vn -0.9929 0.0783 -0.0899
vn 0.0463 0.2171 0.9750
vn 0.1142 0.1742 0.9781
vn 0.0940 -0.9870 0.1304
vn -0.0940 -0.9870 0.1303
vn -0.9982 0.0518 -0.0305
vn 0.0349 -0.9777 0.2069
vn -0.0606 -0.9772 0.2033
vn 0.0084 -0.9853 0.1704
vn -0.7607 -0.6363 0.1280
vn -0.0000 -0.8883 0.4593
vn -0.0000 -0.8267 0.5627
vn -0.9555 -0.2894 0.0576
vn 0.3943 -0.9044 0.1630
vn -0.0000 -0.6151 0.7885
vn -0.9992 -0.0389 0.0050
vn 0.5168 -0.8413 0.1589
vn 0.7593 -0.6378 0.1287
vn -0.5214 -0.8385 0.1586
vn -0.0000 -0.2248 0.9744
vn 0.0000 0.0890 0.9960
vn 0.9557 -0.2885 0.0580
vn -0.9551 -0.2904 0.0580
vn -0.3913 -0.9056 0.1633
vn -0.9993 -0.0358 0.0053
vn -0.0000 -0.9854 0.1703
vn 0.9993 -0.0358 0.0053
vn 0.0328 -0.9849 0.1701
vn 0.0000 -0.9890 0.1477
vn 0.0863 0.1420 0.9861
vn 0.0344 0.2204 0.9748
vn 0.0859 0.2135 0.9732
vn -0.9896 0.0392 -0.1382
vn -0.9934 0.1113 -0.0291
vn -0.0681 0.3056 0.9497
vn -0.0295 -0.9920 0.1227
vn 0.0295 -0.9920 0.1227
vn 0.0714 -0.9849 0.1578
vn 0.0157 -0.9839 0.1778
vn 0.0084 -0.9825 0.1860
vn -0.0084 -0.9825 0.1859
vn -0.0057 -0.9852 0.1714
vn -0.0548 -0.9884 0.1418
vn 0.0000 -0.9962 0.0869
vn 0.0435 -0.9842 0.1717
vn 0.0000 0.3025 0.9531
vn -0.0435 -0.9842 0.1717
vn -0.0003 -0.9962 0.0877
vn 0.0003 -0.9962 0.0876
vn 0.0423 -0.9893 0.1394
vn 0.0424 -0.9894 0.1387
vn -0.0003 -0.9818 0.1899
vn 0.0003 -0.9818 0.1899
vn -0.0424 -0.9894 0.1388
vn -0.0423 -0.9894 0.1393
vn -0.0000 -0.9844 0.1761
vn 0.0000 -0.9961 0.0879
vn -0.7583 -0.6391 0.1284
vn -0.5168 -0.8413 0.1586
vn -0.3944 -0.9044 0.1628
vn -0.0084 -0.9853 0.1704
vn 0.0419 -0.9839 0.1737
vn -0.0419 -0.9839 0.1737
vn 0.0000 -0.9819 0.1896
vn 0.0000 0.9859 -0.1671
vn 0.0000 -0.9901 -0.1403
vn 0.0000 0.9902 0.1400
vn 0.0000 0.9632 0.2687
vn -0.0000 0.8523 0.5231
vn -0.0000 0.5588 0.8293
vn -0.0000 -0.9863 0.1648
vn 0.0000 -0.9816 0.1910
vn -0.7369 -0.2280 -0.6364
vn 0.0000 -0.3025 -0.9531
vn 0.7369 -0.2280 -0.6364
vn 0.0000 0.1915 0.9815
vn 0.0010 -0.1393 -0.9903
vn -1.0000 -0.0005 0.0001
vn -0.9993 0.0380 -0.0057
vn 0.9993 0.0380 -0.0057
vn 1.0000 -0.0005 0.0000
vn -0.0294 0.9844 -0.1736
vn -0.0719 -0.9848 0.1582
vn 0.0546 -0.9884 0.1417
vn 0.0895 -0.9765 0.1962
vn -0.5155 -0.8220 0.2422
vn 0.4408 -0.8065 0.3941
vn 0.8205 -0.2338 0.5217
vn -0.9386 -0.2656 0.2201
vn -0.8622 0.0317 0.5056
vn 0.6473 -0.5932 0.4787
vn 0.3374 -0.8800 0.3342
vn -0.3815 -0.8889 0.2537
vn 0.9839 -0.0111 0.1782
vn -0.7483 -0.6162 0.2457
vn 1.0000 -0.0011 -0.0015
vn -0.9919 0.0356 0.1221
vn 0.5215 0.8219 -0.2291
vn -0.4454 0.8058 -0.3904
vn -0.8217 0.2339 -0.5197
vn 0.9397 0.2668 -0.2138
vn 0.8629 -0.0310 -0.5044
vn -0.6500 0.5926 -0.4757
vn -0.3449 0.8806 -0.3251
vn 0.3868 0.8931 -0.2299
vn -0.9847 0.0130 -0.1735
vn 0.7514 0.6161 -0.2362
vn -0.0158 -0.9840 0.1777
vn 0.0057 -0.9852 0.1715
vn -0.0343 -0.9904 0.1337
vn 0.0343 -0.9904 0.1337
vn -0.4667 -0.8795 -0.0929
vn -0.6809 -0.6938 -0.2344
vn -0.8544 -0.3607 -0.3741
vn 0.9307 -0.3132 -0.1892
vn 0.8968 -0.0978 -0.4315
vn 0.5096 -0.8604 0.0001
vn 0.3855 -0.9222 0.0298
vn -0.3518 -0.9358 -0.0247
vn -0.9674 -0.0701 -0.2433
vn 0.7480 -0.6575 -0.0903
vn 1.0000 -0.0025 -0.0096
vn -0.9999 -0.0028 -0.0104
vn 0.4713 0.8774 0.0893
vn 0.6838 0.6919 0.2318
vn 0.8558 0.3595 0.3720
vn -0.9320 0.3118 0.1849
vn -0.8978 0.0980 0.4293
vn -0.5147 0.8573 -0.0097
vn -0.3900 0.9194 -0.0509
vn 0.3590 0.9332 0.0161
vn 0.9683 0.0704 0.2396
vn -0.7515 0.6543 0.0843
vn -0.0131 -0.9884 0.1512
vn -0.0462 -0.9856 0.1625
vn 0.0654 -0.9967 0.0481
vn 0.0038 0.1390 0.9903
vn 0.9993 0.0380 -0.0056
vn -0.9993 0.0380 -0.0056
vn -1.0000 -0.0004 0.0001
vn 0.0036 -0.1394 -0.9902
vn -0.0011 0.1389 0.9903
vn 1.0000 -0.0005 0.0001
vn -0.0010 -0.1393 -0.9903
vn 0.0009 0.9843 -0.1766
vn 0.1865 -0.9804 0.0636
vn -0.0558 -0.9885 0.1402
vn 0.0514 0.9883 -0.1436
vn -0.0408 -0.9945 0.0966
vn 0.1354 -0.9810 0.1386
vn 0.4807 0.1637 0.8614
vn 0.9668 0.0683 0.2462
vn 0.8925 0.0919 0.4416
vn -0.0513 -0.9883 0.1438
vn 0.0065 -0.9855 0.1694
vn 0.4017 -0.0858 -0.9118
vn 0.9834 0.0086 -0.1813
vn 0.8632 -0.0406 -0.5032
vn -0.0720 0.9847 -0.1586
vn -0.0136 0.9856 -0.1683
vn -0.0239 0.9921 -0.1231
vn -0.3969 -0.0883 -0.9136
vn -0.9856 0.0077 -0.1689
vn -0.8645 -0.0468 -0.5005
vn 0.0740 0.9970 -0.0244
vn 0.0869 0.9893 -0.1175
vn 0.0539 0.9851 -0.1636
vn -0.9693 0.0772 0.2333
vn -0.4728 0.1742 0.8638
vn -0.8977 0.1122 0.4262
vn 0.0678 0.9803 -0.1853
vn 0.0403 0.9811 -0.1890
vn 0.0245 0.9757 -0.2177
vn -0.0292 -0.9839 0.1765
vn 0.0302 -0.9878 0.1528
vn 0.0164 -0.9892 0.1457
vn 0.0000 -0.1792 -0.9838
vn 0.3933 0.7813 0.4846
vn 0.7869 0.1106 0.6071
vn 0.3933 -0.5603 0.7289
vn -0.3933 -0.5603 0.7289
vn -0.7869 0.1106 0.6071
vn -0.3933 0.7813 0.4846
vn 0.0000 -0.5650 -0.8251
vn 0.3933 0.9111 0.1236
vn 0.7869 0.3487 0.5091
vn 0.3933 -0.2141 0.8942
vn -0.3933 -0.2141 0.8942
vn -0.7869 0.3487 0.5091
vn -0.3933 0.9111 0.1236
vn 0.3933 0.8808 -0.2637
vn 0.7869 0.5278 0.3197
vn 0.3933 0.1742 0.9028
vn -0.3933 0.1742 0.9028
vn -0.7869 0.5278 0.3197
vn -0.3933 0.8808 -0.2637
vn 0.0000 -0.9881 -0.1539
vn 0.3933 0.7144 -0.5788
vn 0.7869 0.6097 0.0949
vn 0.3933 0.5044 0.7687
vn -0.3933 0.5044 0.7687
vn -0.7869 0.6097 0.0949
vn -0.3933 0.7144 -0.5788
vn 0.0000 0.0901 0.9959
vn -0.3933 0.6235 -0.6757
vn -0.7869 -0.0556 -0.6145
vn -0.3933 -0.7347 -0.5528
vn 0.3933 -0.7347 -0.5528
vn 0.7869 -0.0556 -0.6146
vn 0.3933 0.6235 -0.6757
vn 0.0000 -0.2152 0.9766
vn -0.3933 0.7986 -0.4556
vn -0.7869 0.1328 -0.6026
vn -0.3933 -0.5332 -0.7490
vn 0.3933 -0.5332 -0.7490
vn 0.7869 0.1328 -0.6026
vn 0.3933 0.7986 -0.4556
vn 0.0000 -0.6122 0.7907
vn -0.3933 0.9167 -0.0702
vn -0.7869 0.3777 -0.4880
vn -0.3933 -0.1616 -0.9051
vn 0.3933 -0.1616 -0.9051
vn 0.7870 0.3777 -0.4879
vn 0.3933 0.9167 -0.0704
vn -0.0000 -0.8852 0.4652
vn -0.3933 0.8631 0.3168
vn -0.7869 0.5462 -0.2871
vn -0.3933 0.2287 -0.8905
vn 0.3933 0.2287 -0.8905
vn 0.7869 0.5462 -0.2871
vn 0.3933 0.8632 0.3167
vn -0.0000 -0.9839 0.1787
vn -0.3933 0.7287 0.5607
vn -0.7869 0.6071 -0.1103
vn -0.3933 0.4850 -0.7811
vn 0.3933 0.4850 -0.7811
vn 0.7869 0.6071 -0.1103
vn 0.3933 0.7287 0.5607
vn -0.5189 -0.1573 -0.8402
vn 0.6799 -0.5970 0.4259
vn 0.0075 -0.5528 0.8333
vn -0.3523 0.1414 0.9252
vn -0.0397 0.7910 0.6105
vn 0.6329 0.7470 0.2036
vn 0.9924 0.0526 0.1112
vn -0.9689 -0.1066 -0.2234
vn 0.7394 -0.6604 -0.1309
vn 0.5530 -0.5498 0.6260
vn 0.4109 0.1766 0.8944
vn 0.4557 0.7919 0.4065
vn 0.6427 0.6814 -0.3503
vn 0.7842 -0.0451 -0.6189
vn -0.9984 -0.0500 -0.0262
vn 0.5958 0.6702 -0.4425
vn 0.6405 -0.0459 -0.7666
vn 0.6601 -0.6853 -0.3076
vn 0.6358 -0.6086 0.4748
vn 0.5917 0.1076 0.7990
vn 0.5714 0.7470 0.3399
vn -0.9414 -0.3341 0.0463
vn 0.3609 0.7526 -0.5507
vn 0.6003 0.0447 -0.7985
vn 0.8197 -0.5019 -0.2761
vn 0.8003 -0.3406 0.4935
vn 0.5615 0.3676 0.7413
vn 0.3415 0.9140 0.2190
vn -0.7385 -0.6631 0.1222
vn 0.0151 0.8036 -0.5950
vn 0.4923 0.2274 -0.8402
vn 0.9324 -0.1674 -0.3203
vn 0.8958 0.0143 0.4441
vn 0.4191 0.5909 0.6894
vn -0.0215 0.9853 0.1695
vn -0.3985 -0.9005 0.1740
vn -0.3447 0.7214 -0.6007
vn 0.3108 0.3794 -0.8715
vn 0.9011 0.2132 -0.3777
vn 0.8362 0.3895 0.3861
vn 0.1810 0.7320 0.6568
vn -0.4096 0.8976 0.1631
vn -0.9847 -0.0251 0.1723
vn 0.6201 -0.7705 -0.1480
vn 0.7322 -0.4108 0.5433
vn 0.7191 0.3754 0.5848
vn 0.5946 0.8014 -0.0645
vn 0.4831 0.4418 -0.7560
vn 0.4956 -0.3444 -0.7974
vn -0.4141 0.0619 0.9081
vn -0.0616 -0.7523 -0.6559
vn 0.6537 -0.6785 -0.3352
vn 0.9703 0.0359 -0.2392
vn 0.5723 0.6759 -0.4643
vn -0.1427 0.6021 -0.7856
vn -0.4596 -0.1123 -0.8810
vn -0.0372 0.8374 -0.5454
vn -0.4666 0.2509 -0.8482
vn -0.9048 -0.2010 -0.3753
vn -0.9143 -0.0661 0.3996
vn -0.4855 0.5207 0.7023
vn -0.0467 0.9722 0.2295
vn 0.7714 -0.6252 0.1182
vn 0.3968 -0.9066 0.1438
vn 0.3944 0.8895 0.2305
vn -0.2174 0.6943 0.6861
vn -0.8565 0.3635 0.3665
vn -0.8839 0.2287 -0.4080
vn -0.2723 0.4245 -0.8635
vn 0.3670 0.7547 -0.5438
vn -0.3581 0.7626 -0.5387
vn -0.5614 0.0581 -0.8255
vn -0.7880 -0.5157 -0.3362
vn -0.8119 -0.3849 0.4390
vn -0.6091 0.3198 0.7258
vn -0.3820 0.8934 0.2366
vn 0.9485 -0.3062 0.0808
vn -0.5738 0.6258 -0.5283
vn -0.5723 -0.1083 -0.8129
vn -0.6138 -0.7214 -0.3207
vn -0.6573 -0.6005 0.4553
vn -0.6594 0.1336 0.7398
vn -0.6173 0.7467 0.2476
vn 0.9980 -0.0205 0.0592
vn 0.3960 0.0726 0.9154
vn -0.2458 -0.8294 -0.5016
vn 0.3808 -0.4595 -0.8024
vn 0.3822 0.3253 -0.8649
vn -0.2426 0.7399 -0.6275
vn -0.8695 0.3699 -0.3273
vn -0.8707 -0.4149 -0.2643
vn 0.9773 0.0093 0.2119
vn -0.6816 -0.6829 0.2629
vn -0.5150 -0.6914 -0.5067
vn -0.4359 -0.0140 -0.8999
vn -0.5239 0.6714 -0.5242
vn -0.6910 0.6800 0.2452
vn -0.7696 0.0025 0.6385
vn 0.9811 -0.0673 -0.1812
vn -0.5686 -0.6101 0.5518
vn -0.7150 -0.6636 -0.2199
vn -0.7513 -0.0117 -0.6599
vn -0.6417 0.6931 -0.3284
vn -0.4958 0.7466 0.4435
vn -0.4590 0.0947 0.8834
vn 0.4729 -0.2385 -0.8482
vn 0.3836 0.4180 0.8235
vn 0.1824 -0.3366 0.9238
vn -0.4930 -0.6073 0.6230
vn -0.9670 -0.1237 0.2228
vn -0.7660 0.6310 0.1230
vn -0.0903 0.9015 0.4232
usemtl Helmet
s off
f 299/1/1 37/2/1 9/3/1 315/4/1
f 28/5/2 4/6/2 18/7/2 53/8/2
f 301/9/3 45/10/3 13/11/3 316/12/3
f 241/13/4 7/14/4 19/15/4 242/16/4
f 305/17/5 237/18/5 15/19/5 308/20/5
f 7/14/6 34/21/6 58/22/6 19/15/6
f 266/23/7 3/24/7 17/25/7 267/26/7
f 60/27/8 20/28/8 14/29/8 36/30/8
f 307/31/9 269/32/9 11/33/9 298/34/9
f 308/20/10 15/19/10 38/35/10 296/36/10
f 243/37/11 23/38/11 8/39/11 244/40/11
f 272/41/12 66/42/12 39/43/12 273/44/12
f 63/45/13 22/46/13 10/47/13 44/48/13
f 21/49/14 64/50/14 43/51/14 12/52/14
f 274/53/15 21/49/15 12/52/15 275/54/15
f 245/55/16 62/56/16 47/57/16 246/58/16
f 267/26/17 17/25/17 21/49/17 274/53/17
f 23/38/18 59/59/18 35/60/18 8/39/18
f 238/61/19 24/62/19 52/63/19 239/64/19
f 304/65/20 240/66/20 42/67/20 309/68/20
f 3/24/21 27/69/21 54/70/21 17/25/21
f 298/34/22 11/33/22 46/71/22 297/72/22
f 240/66/23 9/3/23 7/14/23 241/13/23
f 306/73/24 268/74/24 50/75/24 310/76/24
f 33/77/25 1/78/25 16/79/25 57/80/25
f 38/35/26 15/19/26 1/78/26 33/77/26
f 268/74/27 13/11/27 3/24/27 266/23/27
f 237/18/28 49/81/28 24/62/28 238/61/28
f 46/71/29 11/33/29 4/6/29 28/5/29
f 13/11/30 45/10/30 27/69/30 3/24/30
f 269/32/31 41/82/31 29/83/31 270/84/31
f 270/84/32 29/83/32 56/85/32 271/86/32
f 9/3/33 37/2/33 34/21/33 7/14/33
f 19/15/34 58/22/34 59/59/34 23/38/34
f 53/8/35 18/7/35 22/46/35 63/45/35
f 239/64/36 52/63/36 62/56/36 245/55/36
f 242/16/37 19/15/37 23/38/37 243/37/37
f 17/25/38 54/70/38 64/50/38 21/49/38
f 57/80/39 16/79/39 20/28/39 60/27/39
f 271/86/40 56/85/40 66/42/40 272/41/40
f 43/87/41 64/88/41 106/89/41 114/90/41
f 54/91/42 27/92/42 77/93/42 76/94/42
f 61/95/43 48/96/43 111/97/43 103/98/43
f 296/99/44 38/100/44 84/101/44 311/102/44
f 47/103/45 62/104/45 104/105/45 112/106/45
f 25/107/46 51/108/46 71/109/46 74/110/46
f 50/111/47 25/107/47 74/110/47 96/112/47
f 59/113/48 58/114/48 110/115/48 87/116/48
f 52/117/49 24/118/49 73/119/49 72/120/49
f 57/121/50 60/122/50 88/123/50 109/124/50
f 24/118/51 49/125/51 95/126/51 73/119/51
f 58/114/52 34/127/52 86/128/52 110/115/52
f 46/129/53 28/130/53 78/131/53 94/132/53
f 33/133/54 57/121/54 109/124/54 85/134/54
f 27/92/55 45/135/55 93/136/55 77/93/55
f 55/137/56 65/138/56 107/139/56 79/140/56
f 42/141/57 30/142/57 82/143/57 92/144/57
f 276/145/58 275/54/58 12/52/58 43/51/58
f 66/146/59 56/147/59 80/148/59 108/149/59
f 273/44/58 277/150/58 44/48/58 10/47/58
f 29/151/60 41/152/60 91/153/60 81/154/60
f 53/155/61 63/156/61 105/157/61 75/158/61
f 35/159/62 59/113/62 87/116/62 90/160/62
f 64/88/63 54/91/63 76/94/63 106/89/63
f 247/161/58 246/58/58 47/57/58 69/162/58
f 244/40/58 248/163/58 70/164/58 40/165/58
f 72/166/64 73/167/64 74/168/64 71/169/64
f 80/170/65 81/171/65 82/172/65 79/173/65
f 84/174/66 85/175/66 86/176/66 83/177/66
f 88/178/67 89/179/67 90/180/67 87/181/67
f 81/171/68 91/182/68 92/183/68 82/172/68
f 73/167/69 95/184/69 96/185/69 74/168/69
f 311/186/70 84/174/70 83/177/70 302/187/70
f 189/188/71 179/189/71 180/190/71 190/191/71
f 104/192/72 72/166/72 71/169/72 103/193/72
f 179/189/73 152/194/73 151/195/73 180/190/73
f 108/196/74 80/170/74 79/173/74 107/197/74
f 85/175/75 109/198/75 110/199/75 86/176/75
f 109/198/76 88/178/76 87/181/76 110/199/76
f 112/200/77 104/192/77 103/193/77 111/201/77
f 152/194/78 172/202/78 171/203/78 151/195/78
f 116/204/79 108/196/79 107/197/79 115/205/79
f 154/206/80 171/203/80 172/202/80 153/207/80
f 120/208/58 119/209/58 117/210/58 118/211/58
f 119/212/81 112/200/81 111/201/81 117/213/81
f 115/205/82 120/214/82 118/215/82 116/204/82
f 250/216/83 249/217/83 119/218/83 120/219/83
f 28/130/84 53/155/84 75/158/84 78/131/84
f 276/220/85 43/87/85 114/90/85 278/221/85
f 63/156/86 44/222/86 113/223/86 105/157/86
f 309/224/87 42/141/87 92/144/87 312/225/87
f 277/226/88 68/227/88 118/228/88 279/229/88
f 56/147/89 29/151/89 81/154/89 80/148/89
f 39/230/90 66/146/90 108/149/90 116/231/90
f 65/138/91 40/232/91 115/233/91 107/139/91
f 297/234/92 46/129/92 94/132/92 313/235/92
f 30/142/93 55/137/93 79/140/93 82/143/93
f 48/96/94 67/236/94 117/237/94 111/97/94
f 38/100/95 33/133/95 85/134/95 84/101/95
f 68/238/94 39/230/94 116/231/94 118/239/94
f 310/240/96 50/111/96 96/112/96 314/241/96
f 247/242/97 69/243/97 119/244/97 249/245/97
f 34/127/98 37/246/98 83/247/98 86/128/98
f 248/248/99 35/159/99 90/160/99 250/249/99
f 62/104/100 52/117/100 72/120/100 104/105/100
f 51/108/101 61/95/101 103/98/101 71/109/101
f 60/122/102 36/250/102 89/251/102 88/123/102
f 69/252/103 47/103/103 112/106/103 119/253/103
f 40/232/103 70/254/103 120/255/103 115/233/103
f 146/256/104 122/257/104 130/258/104 163/259/104
f 152/194/105 179/189/105 139/260/105 125/261/105
f 154/206/106 126/262/106 134/263/106 171/203/106
f 257/264/107 258/265/107 140/266/107 128/267/107
f 252/268/108 127/269/108 136/270/108 253/271/108
f 128/267/109 140/266/109 184/272/109 160/273/109
f 282/274/110 283/275/110 138/276/110 123/277/110
f 186/278/111 162/279/111 135/280/111 141/281/111
f 280/282/112 124/283/112 132/284/112 285/285/112
f 127/269/113 145/286/113 164/287/113 136/270/113
f 259/288/114 260/289/114 129/290/114 144/291/114
f 288/292/115 289/293/115 165/294/115 192/295/115
f 189/188/116 170/296/116 131/297/116 143/298/116
f 142/299/117 133/300/117 169/301/117 190/191/117
f 290/302/118 291/303/118 133/300/118 142/299/118
f 261/304/119 262/305/119 173/306/119 188/307/119
f 283/275/120 290/302/120 142/299/120 138/276/120
f 144/291/121 129/290/121 161/308/121 185/309/121
f 254/310/122 255/311/122 178/312/122 147/313/122
f 251/314/123 149/315/123 168/316/123 256/317/123
f 123/277/124 138/276/124 180/190/124 151/195/124
f 124/283/125 153/207/125 172/202/125 132/284/125
f 256/317/126 257/264/126 128/267/126 130/258/126
f 281/318/127 157/319/127 176/320/127 284/321/127
f 159/322/128 183/323/128 137/324/128 121/325/128
f 164/287/129 159/322/129 121/325/129 136/270/129
f 284/321/130 282/274/130 123/277/130 134/263/130
f 253/271/131 254/310/131 147/313/131 175/326/131
f 172/202/132 152/194/132 125/261/132 132/284/132
f 134/263/133 123/277/133 151/195/133 171/203/133
f 285/285/134 286/327/134 155/328/134 167/329/134
f 286/327/135 287/330/135 182/331/135 155/328/135
f 130/258/136 128/267/136 160/273/136 163/259/136
f 140/266/137 144/291/137 185/309/137 184/272/137
f 179/189/138 189/188/138 143/298/138 139/260/138
f 255/311/139 261/304/139 188/307/139 178/312/139
f 258/265/140 259/288/140 144/291/140 140/266/140
f 138/276/141 142/299/141 190/191/141 180/190/141
f 183/323/142 186/278/142 141/281/142 137/324/142
f 287/330/143 288/292/143 192/295/143 182/331/143
f 163/332/144 201/333/144 208/334/144 146/335/144
f 185/336/145 203/337/145 218/338/145 184/339/145
f 184/339/146 218/338/146 202/340/146 160/341/146
f 181/342/147 197/343/147 216/344/147 191/345/147
f 168/346/148 207/347/148 200/348/148 156/349/148
f 292/350/149 169/301/149 133/300/149 291/303/149
f 289/293/150 131/297/150 170/296/150 293/351/150
f 161/352/151 205/353/151 203/337/151 185/336/151
f 263/354/152 195/355/152 173/306/152 262/305/152
f 129/290/153 260/289/153 166/356/153 196/357/153 161/308/153
f 193/358/154 174/359/154 173/306/154 195/355/154
f 198/360/155 197/343/155 200/348/155 199/361/155
f 162/279/156 186/278/156 185/309/156 161/308/156
f 186/278/157 183/323/157 184/272/157 185/309/157
f 199/362/158 200/348/158 207/347/158 206/363/158
f 173/306/159 174/359/159 187/364/159 188/307/159
f 183/323/160 159/322/160 160/273/160 184/272/160
f 206/365/161 207/347/161 211/366/161 210/367/161
f 187/364/162 177/368/162 178/312/162 188/307/162
f 177/368/163 148/369/163 147/313/163 178/312/163
f 217/370/164 216/344/164 197/343/164 198/371/164
f 159/322/165 164/287/165 163/259/165 160/273/165
f 146/256/166 163/259/166 164/287/166 145/286/166
f 148/369/167 176/320/167 175/326/167 147/313/167
f 156/372/168 168/316/168 167/329/168 155/328/168
f 220/373/169 219/374/169 216/344/169 217/375/169
f 150/376/170 167/329/170 168/316/170 149/315/170
f 224/377/171 222/378/171 221/379/171 223/380/171
f 158/381/172 175/326/172 176/320/172 157/319/172
f 219/374/173 220/382/173 222/378/173 224/377/173
f 205/353/174 224/377/174 223/380/174 204/383/174
f 149/384/175 211/366/175 207/347/175 168/346/175
f 191/345/176 216/344/176 219/374/176 166/385/176
f 156/349/177 200/348/177 197/343/177 181/342/177
f 160/341/178 202/340/178 201/333/178 163/332/178
f 196/386/179 224/377/179 205/353/179 161/352/179
f 166/385/180 219/374/180 224/377/180 196/386/180
f 6/387/181 230/388/181 145/389/181 127/390/181
f 231/391/182 2/392/182 122/393/182 146/394/182
f 264/395/183 26/396/183 149/397/183 251/398/183
f 295/399/184 229/400/184 124/401/184 280/402/184
f 229/400/185 234/403/185 153/404/185 124/401/185
f 233/405/186 5/406/186 126/407/186 154/408/186
f 294/409/187 31/410/187 157/411/187 281/412/187
f 265/413/188 6/387/188 127/390/188 252/414/188
f 97/415/189 235/416/189 208/417/189 209/418/189
f 99/419/190 98/420/190 210/421/190 211/422/190
f 101/423/191 100/424/191 225/425/191 226/426/191
f 102/427/192 236/428/192 214/429/192 215/430/192
f 230/388/193 97/415/193 209/418/193 145/389/193
f 235/416/194 231/391/194 146/394/194 208/417/194
f 98/420/195 232/431/195 150/432/195 210/421/195
f 26/396/196 99/419/196 211/422/196 149/397/196
f 100/433/197 233/405/197 154/408/197 212/434/197
f 234/403/198 101/435/198 213/436/198 153/404/198
f 236/428/199 32/437/199 158/438/199 214/429/199
f 31/410/200 102/427/200 215/430/200 157/411/200
f 195/355/201 263/354/201 162/279/201 161/308/201 196/357/201
f 209/418/202 208/417/202 146/394/202 145/389/202
f 181/439/203 156/372/203 155/328/203 182/331/203
f 191/440/204 181/439/204 182/331/204 192/295/204
f 191/440/205 192/295/205 165/294/205 166/356/205
f 196/357/206 166/356/206 165/294/206 194/441/206
f 211/422/207 210/421/207 150/432/207 149/397/207
f 215/430/208 214/429/208 158/438/208 157/411/208
f 213/436/209 212/434/209 154/408/209 153/404/209
f 278/442/210 279/443/210 118/444/210 117/445/210
f 189/188/211 190/191/211 169/301/211 170/296/211
f 114/446/212 106/447/212 105/448/212 113/449/212
f 106/447/213 76/450/213 75/451/213 105/448/213
f 76/450/214 77/452/214 78/453/214 75/451/214
f 77/452/215 93/454/215 94/455/215 78/453/215
f 292/350/216 193/358/216 194/441/216 293/351/216
f 196/357/171 194/441/171 193/358/171 195/355/171
f 226/456/217 225/457/217 227/458/217 228/459/217
f 100/460/218 212/461/218 227/462/218 225/463/218
f 212/464/219 213/465/219 228/466/219 227/467/219
f 213/468/220 101/469/220 226/470/220 228/471/220
f 319/472/221 100/473/221 101/474/221 313/475/221
f 317/476/222 32/477/222 236/478/222 303/479/222
f 301/480/223 233/481/223 100/482/223 319/483/223
f 303/484/224 236/485/224 102/486/224 314/487/224
f 318/488/225 98/489/225 99/490/225 312/491/225
f 299/492/226 231/493/226 235/494/226 302/495/226
f 320/496/227 318/497/227 300/498/227 307/499/227
f 32/437/228 265/413/228 252/414/228 158/438/228
f 2/392/229 264/395/229 251/398/229 122/393/229
f 162/279/230 263/354/230 262/305/230 135/280/230
f 181/439/231 191/440/231 259/288/231 258/265/231
f 137/324/232 141/281/232 261/304/232 255/311/232
f 136/270/233 121/325/233 254/310/233 253/271/233
f 168/316/234 156/372/234 257/264/234 256/317/234
f 122/257/235 251/314/235 256/317/235 130/258/235
f 121/325/236 137/324/236 255/311/236 254/310/236
f 141/281/237 135/280/237 262/305/237 261/304/237
f 191/440/238 166/356/238 260/289/238 259/288/238
f 158/381/239 252/268/239 253/271/239 175/326/239
f 156/372/240 181/439/240 258/265/240 257/264/240
f 70/500/241 248/248/241 250/249/241 120/501/241
f 36/250/242 247/242/242 249/245/242 89/251/242
f 90/180/83 89/179/83 249/217/83 250/216/83
f 8/39/58 35/60/58 248/163/58 244/40/58
f 36/30/58 14/29/58 246/58/58 247/161/58
f 55/502/243 242/16/243 243/37/243 65/503/243
f 16/79/244 239/64/244 245/55/244 20/28/244
f 15/19/245 237/18/245 238/61/245 1/78/245
f 42/67/246 240/66/246 241/13/246 30/504/246
f 315/4/247 9/3/247 240/66/247 304/65/247
f 1/78/248 238/61/248 239/64/248 16/79/248
f 20/28/249 245/55/249 246/58/249 14/29/249
f 65/503/250 243/37/250 244/40/250 40/165/250
f 317/505/251 49/81/251 237/18/251 305/17/251
f 30/504/252 241/13/252 242/16/252 55/502/252
f 169/301/216 292/350/216 293/351/216 170/296/216
f 114/446/210 113/449/210 279/443/210 278/442/210
f 5/406/253 294/409/253 281/412/253 126/407/253
f 232/431/254 295/399/254 280/402/254 150/432/254
f 165/294/255 289/293/255 293/351/255 194/441/255
f 193/358/256 292/350/256 291/303/256 174/359/256
f 139/260/257 143/298/257 288/292/257 287/330/257
f 125/261/258 139/260/258 287/330/258 286/327/258
f 132/284/259 125/261/259 286/327/259 285/285/259
f 176/320/260 148/369/260 282/274/260 284/321/260
f 126/262/261 281/318/261 284/321/261 134/263/261
f 177/368/262 187/364/262 290/302/262 283/275/262
f 187/364/263 174/359/263 291/303/263 290/302/263
f 143/298/264 131/297/264 289/293/264 288/292/264
f 150/376/265 280/282/265 285/285/265 167/329/265
f 148/369/266 177/368/266 283/275/266 282/274/266
f 44/222/267 277/226/267 279/229/267 113/223/267
f 67/506/268 276/220/268 278/221/268 117/507/268
f 39/43/58 68/508/58 277/150/58 273/44/58
f 67/509/58 48/510/58 275/54/58 276/145/58
f 18/7/269 271/86/269 272/41/269 22/46/269
f 4/6/270 270/84/270 271/86/270 18/7/270
f 11/33/271 269/32/271 270/84/271 4/6/271
f 50/75/272 268/74/272 266/23/272 25/511/272
f 316/12/273 13/11/273 268/74/273 306/73/273
f 51/512/274 267/26/274 274/53/274 61/513/274
f 61/513/275 274/53/275 275/54/275 48/510/275
f 22/46/276 272/41/276 273/44/276 10/47/276
f 300/514/277 41/82/277 269/32/277 307/31/277
f 25/511/278 266/23/278 267/26/278 51/512/278
f 234/403/279 229/400/279 323/515/279 101/435/279
f 265/413/280 32/437/280 236/428/280 330/516/280
f 235/416/281 326/517/281 2/392/281 231/391/281
f 41/152/282 300/518/282 318/519/282 91/153/282
f 37/246/226 299/520/226 302/521/226 83/247/226
f 91/182/283 318/488/283 312/491/283 92/183/283
f 95/184/284 303/484/284 314/487/284 96/185/284
f 45/135/285 301/522/285 319/523/285 93/136/285
f 49/125/286 317/524/286 303/525/286 95/126/286
f 93/454/221 319/472/221 313/475/221 94/455/221
f 31/526/287 310/527/287 314/528/287 102/529/287
f 234/530/288 297/531/288 313/532/288 101/533/288
f 26/534/289 309/535/289 312/536/289 99/537/289
f 97/538/70 311/186/70 302/187/70 235/539/70
f 230/540/44 296/541/44 311/542/44 97/543/44
f 297/544/290 313/545/290 321/546/290 298/547/290
f 326/517/291 327/548/291 264/395/291 2/392/291
f 330/516/292 331/549/292 6/387/292 265/413/292
f 320/496/293 307/499/293 298/547/293 321/546/293
f 97/415/294 230/388/294 6/387/294 331/549/294
f 99/419/295 26/396/295 264/395/295 327/548/295
f 323/550/296 321/551/296 313/532/296 101/533/296
f 98/552/297 318/553/297 320/554/297 322/555/297
f 322/555/298 320/554/298 321/551/298 323/550/298
f 323/515/299 229/400/299 295/399/299 322/556/299
f 295/399/300 232/431/300 98/420/300 322/556/300
f 326/557/301 235/494/301 302/495/301 324/558/301
f 99/537/302 327/559/302 325/560/302 312/536/302
f 327/559/303 326/557/303 324/558/303 325/560/303
f 304/561/304 309/562/304 312/563/304 325/564/304
f 315/565/305 304/561/305 325/564/305 324/566/305
f 324/566/306 302/567/306 299/568/306 315/565/306
f 331/569/307 329/570/307 311/571/307 97/572/307
f 236/478/308 303/479/308 328/573/308 330/574/308
f 330/574/309 328/573/309 329/570/309 331/569/309
f 329/575/310 308/576/310 296/577/310 311/578/310
f 329/575/311 328/579/311 305/580/311 308/576/311
f 328/579/312 303/581/312 317/582/312 305/580/312
f 335/583/313 333/584/313 314/528/313 102/529/313
f 100/482/314 319/483/314 332/585/314 334/586/314
f 334/586/315 332/585/315 333/584/315 335/583/315
f 310/587/316 314/588/316 333/589/316 306/590/316
f 332/591/317 316/592/317 306/590/317 333/589/317
f 319/593/318 301/594/318 316/592/318 332/591/318
f 335/595/319 102/427/319 31/410/319 294/409/319
f 294/409/320 5/406/320 334/596/320 335/595/320
f 334/596/321 5/406/321 233/405/321 100/433/321
f 338/597/322 339/598/322 340/599/322 341/600/322 336/601/322 342/602/322
f 339/603/323 338/604/323 337/605/323
f 340/606/324 339/603/324 337/607/324
f 341/608/325 340/606/325 337/609/325
f 336/610/326 341/608/326 337/611/326
f 342/612/327 336/610/327 337/613/327
f 338/614/328 342/612/328 337/615/328
f 343/616/329 347/617/329 344/618/329 348/619/329 345/620/329 349/621/329
f 347/622/330 343/623/330 346/624/330
f 344/625/331 347/622/331 346/626/331
f 348/627/332 344/625/332 346/628/332
f 345/629/333 348/627/333 346/630/333
f 349/631/334 345/629/334 346/632/334
f 343/633/335 349/631/335 346/634/335
f 350/635/73 355/636/73 351/637/73 356/638/73 352/639/73 353/640/73
f 355/641/336 350/642/336 354/643/336
f 351/644/337 355/641/337 354/645/337
f 356/646/338 351/644/338 354/647/338
f 352/648/339 356/646/339 354/649/339
f 353/650/340 352/648/340 354/651/340
f 350/652/341 353/650/341 354/653/341
f 360/654/342 361/655/342 357/656/342 362/657/342 358/658/342 363/659/342
f 361/660/343 360/661/343 359/662/343
f 357/663/344 361/660/344 359/664/344
f 362/665/345 357/663/345 359/666/345
f 358/667/346 362/665/346 359/668/346
f 363/669/347 358/667/347 359/670/347
f 360/671/348 363/669/348 359/672/348
f 364/673/349 367/674/349 365/675/349 368/676/349 369/677/349 370/678/349
f 367/679/350 364/680/350 366/681/350
f 365/682/351 367/679/351 366/683/351
f 368/684/352 365/682/352 366/685/352
f 369/686/353 368/684/353 366/687/353
f 370/688/354 369/686/354 366/689/354
f 364/690/355 370/688/355 366/691/355
f 374/692/356 375/693/356 376/694/356 377/695/356 371/696/356 372/697/356
f 375/698/357 374/699/357 373/700/357
f 376/701/358 375/698/358 373/702/358
f 377/703/359 376/701/359 373/704/359
f 371/705/360 377/703/360 373/706/360
f 372/707/361 371/705/361 373/708/361
f 374/709/362 372/707/362 373/710/362
f 378/711/363 379/712/363 382/713/363 383/714/363 384/715/363 380/716/363
f 379/717/364 378/718/364 381/719/364
f 382/720/365 379/717/365 381/721/365
f 383/722/366 382/720/366 381/723/366
f 384/724/367 383/722/367 381/725/367
f 380/726/368 384/724/368 381/727/368
f 378/728/369 380/726/369 381/729/369
f 385/730/370 386/731/370 387/732/370 388/733/370 390/734/370 391/735/370
f 386/736/371 385/737/371 389/738/371
f 387/739/372 386/736/372 389/740/372
f 388/741/373 387/739/373 389/742/373
f 390/743/374 388/741/374 389/744/374
f 391/745/375 390/743/375 389/746/375
f 385/747/376 391/745/376 389/748/376
f 395/749/377 396/750/377 397/751/377 392/752/377 393/753/377 398/754/377
f 396/755/378 395/756/378 394/757/378
f 397/758/379 396/755/379 394/759/379
f 392/760/380 397/758/380 394/761/380
f 393/762/381 392/760/381 394/763/381
f 398/764/382 393/762/382 394/765/382
f 395/766/383 398/764/383 394/767/383
f 399/768/384 401/769/384 402/770/384 403/771/384 404/772/384 405/773/384
f 401/774/385 399/775/385 400/776/385
f 402/777/386 401/774/386 400/778/386
f 403/779/387 402/777/387 400/780/387
f 404/781/388 403/779/388 400/782/388
f 405/783/389 404/781/389 400/784/389
f 399/785/390 405/783/390 400/786/390
f 406/787/391 411/788/391 412/789/391 407/790/391 408/791/391 409/792/391
f 411/793/392 406/794/392 410/795/392
f 412/796/393 411/793/393 410/797/393
f 407/798/394 412/796/394 410/799/394
f 408/800/395 407/798/395 410/801/395
f 409/802/396 408/800/396 410/803/396
f 406/804/397 409/802/397 410/805/397
f 417/806/398 413/807/398 414/808/398 418/809/398 415/810/398 419/811/398
f 413/812/399 417/813/399 416/814/399
f 414/815/400 413/812/400 416/816/400
f 418/817/401 414/815/401 416/818/401
f 415/819/402 418/817/402 416/820/402
f 419/821/403 415/819/403 416/822/403
f 417/823/404 419/821/404 416/824/404
f 420/825/405 421/826/405 422/827/405 423/828/405 425/829/405 426/830/405
f 421/831/406 420/832/406 424/833/406
f 422/834/407 421/831/407 424/835/407
f 423/836/408 422/834/408 424/837/408
f 425/838/409 423/836/409 424/839/409
f 426/840/410 425/838/410 424/841/410
f 420/842/411 426/840/411 424/843/411
f 433/844/412 427/845/412 428/846/412 429/847/412 430/848/412 431/849/412
f 427/850/413 433/851/413 432/852/413
f 428/853/414 427/850/414 432/854/414
f 429/855/415 428/853/415 432/856/415
f 430/857/416 429/855/416 432/858/416
f 431/859/417 430/857/417 432/860/417
f 433/861/418 431/859/418 432/862/418
f 434/863/419 435/864/419 436/865/419 439/866/419 440/867/419 437/868/419
f 435/869/420 434/870/420 438/871/420
f 436/872/421 435/869/421 438/873/421
f 439/874/422 436/872/422 438/875/422
f 440/876/423 439/874/423 438/877/423
f 437/878/424 440/876/424 438/879/424
f 434/880/425 437/878/425 438/881/425
f 441/882/426 443/883/426 444/884/426 445/885/426 446/886/426 447/887/426
f 443/888/427 441/889/427 442/890/427
f 444/891/428 443/888/428 442/892/428
f 445/893/429 444/891/429 442/894/429
f 446/895/430 445/893/430 442/896/430
f 447/897/431 446/895/431 442/898/431
f 441/899/432 447/897/432 442/900/432
f 448/901/433 453/902/433 454/903/433 449/904/433 450/905/433 451/906/433
f 453/907/434 448/908/434 452/909/434
f 454/910/435 453/907/435 452/911/435
f 449/912/436 454/910/436 452/913/436
f 450/914/437 449/912/437 452/915/437
f 451/916/438 450/914/438 452/917/438
f 448/918/439 451/916/439 452/919/439
f 458/920/440 455/921/440 459/922/440
f 455/921/441 460/923/441 459/924/441
f 460/923/442 461/925/442 459/926/442
f 461/925/443 456/927/443 459/928/443
f 456/927/444 457/929/444 459/930/444
f 457/929/445 458/931/445 459/932/445
f 458/933/446 457/934/446 456/935/446 461/936/446 460/937/446 455/938/446
f 465/939/447 466/940/447 467/941/447 462/942/447 463/943/447 468/944/447
f 466/945/448 465/946/448 464/947/448
f 467/948/449 466/945/449 464/949/449
f 462/950/450 467/948/450 464/951/450
f 463/952/451 462/950/451 464/953/451
f 468/954/452 463/952/452 464/955/452
f 465/956/453 468/954/453 464/957/453
f 472/958/454 469/959/454 473/960/454
f 469/959/455 474/961/455 473/962/455
f 474/961/456 475/963/456 473/964/456
f 475/963/457 470/965/457 473/966/457
f 470/965/458 471/967/458 473/968/458
f 471/967/459 472/969/459 473/970/459
f 472/971/460 471/972/460 470/973/460 475/974/460 474/975/460 469/976/460
f 479/977/461 476/978/461 480/979/461
f 476/978/462 481/980/462 480/981/462
f 481/980/463 482/982/463 480/983/463
f 482/982/464 477/984/464 480/985/464
f 477/984/465 478/986/465 480/987/465
f 478/986/466 479/988/466 480/989/466
f 479/990/467 478/991/467 477/992/467 482/993/467 481/994/467 476/995/467
f 483/996/468 485/997/468 486/998/468 487/999/468 488/1000/468 489/1001/468
f 485/1002/469 483/1003/469 484/1004/469
f 486/1005/470 485/1002/470 484/1006/470
f 487/1007/471 486/1005/471 484/1008/471
f 488/1009/472 487/1007/472 484/1010/472
f 489/1011/473 488/1009/473 484/1012/473
f 483/1013/474 489/1011/474 484/1014/474
f 490/1015/475 495/1016/475 496/1017/475 491/1018/475 492/1019/475 493/1020/475
f 495/1021/476 490/1022/476 494/1023/476
f 496/1024/477 495/1021/477 494/1025/477
f 491/1026/478 496/1024/478 494/1027/478
f 492/1028/479 491/1026/479 494/1029/479
f 493/1030/480 492/1028/480 494/1031/480
f 490/1032/481 493/1030/481 494/1033/481
f 497/1034/482 499/1035/482 500/1036/482 501/1037/482 502/1038/482 503/1039/482
f 499/1040/483 497/1041/483 498/1042/483
f 500/1043/484 499/1040/484 498/1044/484
f 501/1045/485 500/1043/485 498/1046/485
f 502/1047/486 501/1045/486 498/1048/486
f 503/1049/487 502/1047/487 498/1050/487
f 497/1051/488 503/1049/488 498/1052/488
f 504/1053/489 509/1054/489 510/1055/489 505/1056/489 506/1057/489 507/1058/489
f 509/1059/490 504/1060/490 508/1061/490
f 510/1062/491 509/1059/491 508/1063/491
f 505/1064/492 510/1062/492 508/1065/492
f 506/1066/493 505/1064/493 508/1067/493
f 507/1068/494 506/1066/494 508/1069/494
f 504/1070/495 507/1068/495 508/1071/495
